
Template.sampleLeadPlayer.rendered = function() {
  if (!this.rendered) {
    this.rendered = true;

    Session.setDefault('playSpeed', .9);
    Session.setDefault('isSynchronous', true);

    LeadPlayer.create(song);
  }

  LeadPlayer.redisplayNotes();
}

Template.sampleLeadPlayer.destroyed = function() {
  LeadPlayer.destroy();
}

var song = {"_id":"vDgzoM7Cxv3K54qDJ","createdAt":"2014-02-10T05:01:13.427Z","createdBy":null,"creatorId":"S2Nkk36fFamqZST9w","desc":"Japanese-style ghost music from Pokemon GameBoy game.<br><br><iframe src=\"http://www.youtube.com/embed/JNJJ-QkZ8cM\" width=\"398\" height=\"224\"></iframe><br><br><br>","genre":"","isGamified":true,"mainTrack":2,"notes":[{"time":0,"note":77,"velocity":80,"segmentId":1,"isKeyboardDown":true,"isStart":true,"keyCode":190},{"time":119.04750000000001,"note":77,"velocity":64,"segmentId":1,"keyCode":190},{"time":476.19000000000005,"note":84,"velocity":80,"segmentId":1,"isKeyboardDown":true,"keyCode":8},{"time":595.2375000000001,"note":84,"velocity":64,"segmentId":1,"keyCode":8},{"time":952.3800000000001,"note":88,"velocity":80,"segmentId":1,"isKeyboardDown":true,"keyCode":189},{"time":1071.4275000000002,"note":88,"velocity":64,"segmentId":1,"keyCode":189},{"time":1428.5700000000002,"note":83,"velocity":80,"segmentId":1,"isKeyboardDown":true,"keyCode":187},{"time":1547.6175000000003,"note":83,"velocity":64,"segmentId":1,"keyCode":187},{"time":1904.7600000000002,"note":77,"velocity":80,"segmentId":1,"isKeyboardDown":true,"keyCode":190},{"time":2023.8075000000003,"note":77,"velocity":64,"segmentId":1,"keyCode":190},{"time":2380.9500000000003,"note":84,"velocity":80,"segmentId":1,"isKeyboardDown":true,"keyCode":8},{"time":2499.9975000000004,"note":84,"velocity":64,"segmentId":1,"keyCode":8},{"time":2857.1400000000003,"note":88,"velocity":80,"segmentId":1,"isKeyboardDown":true,"keyCode":189},{"time":2976.1875000000005,"note":88,"velocity":64,"segmentId":1,"keyCode":189},{"time":3333.3300000000004,"note":83,"velocity":80,"segmentId":1,"isKeyboardDown":true,"keyCode":187},{"time":3452.3775000000005,"note":83,"velocity":64,"segmentId":1,"keyCode":187},{"time":3809.5200000000004,"note":77,"velocity":80,"segmentId":1,"isKeyboardDown":true,"keyCode":190},{"time":3928.5675000000006,"note":77,"velocity":64,"segmentId":1,"keyCode":190},{"time":4285.710000000001,"note":84,"velocity":80,"segmentId":1,"isKeyboardDown":true,"keyCode":8},{"time":4404.757500000001,"note":84,"velocity":64,"segmentId":1,"keyCode":8},{"time":4761.900000000001,"note":88,"velocity":80,"segmentId":1,"isKeyboardDown":true,"keyCode":189},{"time":4880.9475,"note":88,"velocity":64,"segmentId":1,"keyCode":189},{"time":5238.09,"note":83,"velocity":80,"segmentId":1,"isKeyboardDown":true,"keyCode":187},{"time":5357.1375,"note":83,"velocity":64,"segmentId":1,"keyCode":187},{"time":5714.28,"note":77,"velocity":80,"segmentId":1,"isKeyboardDown":true,"keyCode":190},{"time":5833.327499999999,"note":77,"velocity":64,"segmentId":1,"keyCode":190},{"time":6190.469999999999,"note":84,"velocity":80,"segmentId":1,"isKeyboardDown":true,"keyCode":8},{"time":6309.517499999999,"note":84,"velocity":64,"segmentId":1,"keyCode":8},{"time":6666.659999999999,"note":88,"velocity":80,"segmentId":1,"isKeyboardDown":true,"keyCode":189},{"time":6785.707499999999,"note":88,"velocity":64,"segmentId":1,"keyCode":189},{"time":7142.8499999999985,"note":83,"velocity":80,"segmentId":1,"isKeyboardDown":true,"keyCode":187},{"time":7261.897499999998,"note":83,"velocity":64,"segmentId":1,"keyCode":187},{"time":7619.039999999998,"note":77,"velocity":80,"segmentId":1,"isKeyboardDown":true,"keyCode":190},{"time":7619.039999999998,"note":60,"velocity":80,"segmentId":2,"isKeyboardDown":true,"isStart":true,"keyCode":53},{"time":7619.039999999998,"note":57,"velocity":80,"segmentId":3,"isKeyboardDown":true,"isStart":true,"keyCode":69},{"time":7738.087499999998,"note":77,"velocity":64,"segmentId":1,"keyCode":190},{"time":8095.229999999998,"note":84,"velocity":80,"segmentId":1,"isKeyboardDown":true,"keyCode":8},{"time":8214.277499999998,"note":84,"velocity":64,"segmentId":1,"keyCode":8},{"time":8571.419999999998,"note":88,"velocity":80,"segmentId":1,"isKeyboardDown":true,"keyCode":189},{"time":8571.419999999998,"note":60,"velocity":64,"segmentId":2,"keyCode":53},{"time":8571.419999999998,"note":60,"velocity":80,"segmentId":2,"isKeyboardDown":true,"keyCode":53},{"time":8690.467499999999,"note":88,"velocity":64,"segmentId":1,"keyCode":189},{"time":9047.609999999999,"note":83,"velocity":80,"segmentId":1,"isKeyboardDown":true,"keyCode":187},{"time":9166.6575,"note":83,"velocity":64,"segmentId":1,"keyCode":187},{"time":9523.8,"note":77,"velocity":80,"segmentId":1,"isKeyboardDown":true,"keyCode":190},{"time":9523.8,"note":60,"velocity":64,"segmentId":2,"keyCode":53},{"time":9523.8,"note":57,"velocity":80,"segmentId":2,"isKeyboardDown":true,"keyCode":69},{"time":9523.8,"note":57,"velocity":64,"segmentId":3,"keyCode":69},{"time":9523.8,"note":55,"velocity":80,"segmentId":3,"isKeyboardDown":true,"keyCode":83},{"time":9642.8475,"note":77,"velocity":64,"segmentId":1,"keyCode":190},{"time":9999.99,"note":84,"velocity":80,"segmentId":1,"isKeyboardDown":true,"keyCode":8},{"time":10119.0375,"note":84,"velocity":64,"segmentId":1,"keyCode":8},{"time":10476.18,"note":88,"velocity":80,"segmentId":1,"isKeyboardDown":true,"keyCode":189},{"time":10476.18,"note":57,"velocity":64,"segmentId":2,"keyCode":69},{"time":10476.18,"note":57,"velocity":80,"segmentId":2,"isKeyboardDown":true,"keyCode":69},{"time":10595.2275,"note":88,"velocity":64,"segmentId":1,"keyCode":189},{"time":10952.37,"note":83,"velocity":80,"segmentId":1,"isKeyboardDown":true,"keyCode":187},{"time":11071.417500000001,"note":83,"velocity":64,"segmentId":1,"keyCode":187},{"time":11428.560000000001,"note":77,"velocity":80,"segmentId":1,"isKeyboardDown":true,"keyCode":190},{"time":11428.560000000001,"note":57,"velocity":64,"segmentId":2,"keyCode":69},{"time":11428.560000000001,"note":60,"velocity":80,"segmentId":2,"isKeyboardDown":true,"keyCode":53},{"time":11428.560000000001,"note":55,"velocity":64,"segmentId":3,"keyCode":83},{"time":11428.560000000001,"note":53,"velocity":80,"segmentId":3,"isKeyboardDown":true,"keyCode":90},{"time":11547.607500000002,"note":77,"velocity":64,"segmentId":1,"keyCode":190},{"time":11904.750000000002,"note":84,"velocity":80,"segmentId":1,"isKeyboardDown":true,"keyCode":8},{"time":11904.750000000002,"note":60,"velocity":64,"segmentId":2,"keyCode":53},{"time":11904.750000000002,"note":59,"velocity":80,"segmentId":2,"isKeyboardDown":true,"keyCode":52},{"time":12023.797500000002,"note":84,"velocity":64,"segmentId":1,"keyCode":8},{"time":12380.940000000002,"note":88,"velocity":80,"segmentId":1,"isKeyboardDown":true,"keyCode":189},{"time":12380.940000000002,"note":59,"velocity":64,"segmentId":2,"keyCode":52},{"time":12380.940000000002,"note":57,"velocity":80,"segmentId":2,"isKeyboardDown":true,"keyCode":69},{"time":12499.987500000003,"note":88,"velocity":64,"segmentId":1,"keyCode":189},{"time":12857.130000000003,"note":83,"velocity":80,"segmentId":1,"isKeyboardDown":true,"keyCode":187},{"time":12857.130000000003,"note":57,"velocity":64,"segmentId":2,"keyCode":69},{"time":12857.130000000003,"note":64,"velocity":80,"segmentId":2,"isKeyboardDown":true,"keyCode":71},{"time":12976.177500000003,"note":83,"velocity":64,"segmentId":1,"keyCode":187},{"time":13333.320000000003,"note":77,"velocity":80,"segmentId":1,"isKeyboardDown":true,"keyCode":190},{"time":13333.320000000003,"note":64,"velocity":64,"segmentId":2,"keyCode":71},{"time":13333.320000000003,"note":54,"velocity":80,"segmentId":2,"isKeyboardDown":true,"keyCode":88},{"time":13333.320000000003,"note":53,"velocity":64,"segmentId":3,"keyCode":90},{"time":13333.320000000003,"note":57,"velocity":80,"segmentId":3,"isKeyboardDown":true,"keyCode":69},{"time":13452.367500000004,"note":77,"velocity":64,"segmentId":1,"keyCode":190},{"time":13809.510000000004,"note":84,"velocity":80,"segmentId":1,"isKeyboardDown":true,"keyCode":8},{"time":13809.510000000004,"note":57,"velocity":64,"segmentId":3,"keyCode":69},{"time":13809.510000000004,"note":53,"velocity":80,"segmentId":3,"isKeyboardDown":true,"keyCode":90},{"time":13928.557500000004,"note":84,"velocity":64,"segmentId":1,"keyCode":8},{"time":14285.700000000004,"note":88,"velocity":80,"segmentId":1,"isKeyboardDown":true,"keyCode":189},{"time":14285.700000000004,"note":54,"velocity":64,"segmentId":2,"keyCode":88},{"time":14285.700000000004,"note":54,"velocity":80,"segmentId":2,"isKeyboardDown":true,"keyCode":88},{"time":14285.700000000004,"note":53,"velocity":64,"segmentId":3,"keyCode":90},{"time":14285.700000000004,"note":52,"velocity":80,"segmentId":3,"isKeyboardDown":true,"keyCode":65},{"time":14404.747500000005,"note":88,"velocity":64,"segmentId":1,"keyCode":189},{"time":14761.890000000005,"note":83,"velocity":80,"segmentId":1,"isKeyboardDown":true,"keyCode":187},{"time":14761.890000000005,"note":52,"velocity":64,"segmentId":3,"keyCode":65},{"time":14761.890000000005,"note":57,"velocity":80,"segmentId":3,"isKeyboardDown":true,"keyCode":69},{"time":14880.937500000005,"note":83,"velocity":64,"segmentId":1,"keyCode":187},{"time":15238.080000000005,"note":77,"velocity":80,"segmentId":1,"isKeyboardDown":true,"keyCode":190},{"time":15238.080000000005,"note":54,"velocity":64,"segmentId":2,"keyCode":88},{"time":15238.080000000005,"note":60,"velocity":80,"segmentId":2,"isKeyboardDown":true,"keyCode":53},{"time":15238.080000000005,"note":57,"velocity":64,"segmentId":3,"keyCode":69},{"time":15238.080000000005,"note":57,"velocity":80,"segmentId":3,"isKeyboardDown":true,"keyCode":69},{"time":15357.127500000006,"note":77,"velocity":64,"segmentId":1,"keyCode":190},{"time":15714.270000000006,"note":84,"velocity":80,"segmentId":1,"isKeyboardDown":true,"keyCode":8},{"time":15833.317500000006,"note":84,"velocity":64,"segmentId":1,"keyCode":8},{"time":16190.460000000006,"note":88,"velocity":80,"segmentId":1,"isKeyboardDown":true,"keyCode":189},{"time":16190.460000000006,"note":60,"velocity":64,"segmentId":2,"keyCode":53},{"time":16190.460000000006,"note":60,"velocity":80,"segmentId":2,"isKeyboardDown":true,"keyCode":53},{"time":16309.507500000007,"note":88,"velocity":64,"segmentId":1,"keyCode":189},{"time":16666.65000000001,"note":83,"velocity":80,"segmentId":1,"isKeyboardDown":true,"keyCode":187},{"time":16785.69750000001,"note":83,"velocity":64,"segmentId":1,"keyCode":187},{"time":17142.84000000001,"note":77,"velocity":80,"segmentId":1,"isKeyboardDown":true,"keyCode":190},{"time":17142.84000000001,"note":60,"velocity":64,"segmentId":2,"keyCode":53},{"time":17142.84000000001,"note":59,"velocity":80,"segmentId":2,"isKeyboardDown":true,"keyCode":52},{"time":17142.84000000001,"note":57,"velocity":64,"segmentId":3,"keyCode":69},{"time":17142.84000000001,"note":55,"velocity":80,"segmentId":3,"isKeyboardDown":true,"keyCode":83},{"time":17261.88750000001,"note":77,"velocity":64,"segmentId":1,"keyCode":190},{"time":17619.030000000013,"note":84,"velocity":80,"segmentId":1,"isKeyboardDown":true,"keyCode":8},{"time":17738.077500000014,"note":84,"velocity":64,"segmentId":1,"keyCode":8},{"time":18095.220000000016,"note":88,"velocity":80,"segmentId":1,"isKeyboardDown":true,"keyCode":189},{"time":18095.220000000016,"note":59,"velocity":64,"segmentId":2,"keyCode":52},{"time":18095.220000000016,"note":59,"velocity":80,"segmentId":2,"isKeyboardDown":true,"keyCode":52},{"time":18214.267500000016,"note":88,"velocity":64,"segmentId":1,"keyCode":189},{"time":18571.410000000018,"note":83,"velocity":80,"segmentId":1,"isKeyboardDown":true,"keyCode":187},{"time":18690.45750000002,"note":83,"velocity":64,"segmentId":1,"keyCode":187},{"time":19047.60000000002,"note":77,"velocity":80,"segmentId":1,"isKeyboardDown":true,"keyCode":190},{"time":19047.60000000002,"note":59,"velocity":64,"segmentId":2,"keyCode":52},{"time":19047.60000000002,"note":64,"velocity":80,"segmentId":2,"isKeyboardDown":true,"keyCode":71},{"time":19047.60000000002,"note":55,"velocity":64,"segmentId":3,"keyCode":83},{"time":19047.60000000002,"note":53,"velocity":80,"segmentId":3,"isKeyboardDown":true,"keyCode":90},{"time":19166.64750000002,"note":77,"velocity":64,"segmentId":1,"keyCode":190},{"time":19523.790000000023,"note":84,"velocity":80,"segmentId":1,"isKeyboardDown":true,"keyCode":8},{"time":19523.790000000023,"note":64,"velocity":64,"segmentId":2,"keyCode":71},{"time":19523.790000000023,"note":60,"velocity":80,"segmentId":2,"isKeyboardDown":true,"keyCode":53},{"time":19642.837500000023,"note":84,"velocity":64,"segmentId":1,"keyCode":8},{"time":19999.980000000025,"note":88,"velocity":80,"segmentId":1,"isKeyboardDown":true,"keyCode":189},{"time":19999.980000000025,"note":60,"velocity":64,"segmentId":2,"keyCode":53},{"time":19999.980000000025,"note":59,"velocity":80,"segmentId":2,"isKeyboardDown":true,"keyCode":52},{"time":20119.027500000026,"note":88,"velocity":64,"segmentId":1,"keyCode":189},{"time":20476.170000000027,"note":83,"velocity":80,"segmentId":1,"isKeyboardDown":true,"keyCode":187},{"time":20476.170000000027,"note":59,"velocity":64,"segmentId":2,"keyCode":52},{"time":20476.170000000027,"note":64,"velocity":80,"segmentId":2,"isKeyboardDown":true,"keyCode":71},{"time":20595.217500000028,"note":83,"velocity":64,"segmentId":1,"keyCode":187},{"time":20952.36000000003,"note":77,"velocity":80,"segmentId":1,"isKeyboardDown":true,"keyCode":190},{"time":20952.36000000003,"note":64,"velocity":64,"segmentId":2,"keyCode":71},{"time":20952.36000000003,"note":65,"velocity":80,"segmentId":2,"isKeyboardDown":true,"keyCode":66},{"time":20952.36000000003,"note":53,"velocity":64,"segmentId":3,"keyCode":90},{"time":20952.36000000003,"note":57,"velocity":80,"segmentId":3,"isKeyboardDown":true,"keyCode":69},{"time":21071.40750000003,"note":77,"velocity":64,"segmentId":1,"keyCode":190},{"time":21428.550000000032,"note":84,"velocity":80,"segmentId":1,"isKeyboardDown":true,"keyCode":8},{"time":21428.550000000032,"note":57,"velocity":64,"segmentId":3,"keyCode":69},{"time":21428.550000000032,"note":53,"velocity":80,"segmentId":3,"isKeyboardDown":true,"keyCode":90},{"time":21547.597500000033,"note":84,"velocity":64,"segmentId":1,"keyCode":8},{"time":21904.740000000034,"note":88,"velocity":80,"segmentId":1,"isKeyboardDown":true,"keyCode":189},{"time":21904.740000000034,"note":65,"velocity":64,"segmentId":2,"keyCode":66},{"time":21904.740000000034,"note":65,"velocity":80,"segmentId":2,"isKeyboardDown":true,"keyCode":66},{"time":21904.740000000034,"note":53,"velocity":64,"segmentId":3,"keyCode":90},{"time":21904.740000000034,"note":52,"velocity":80,"segmentId":3,"isKeyboardDown":true,"keyCode":65},{"time":22023.787500000035,"note":88,"velocity":64,"segmentId":1,"keyCode":189},{"time":22380.930000000037,"note":83,"velocity":80,"segmentId":1,"isKeyboardDown":true,"keyCode":187},{"time":22380.930000000037,"note":52,"velocity":64,"segmentId":3,"keyCode":65},{"time":22380.930000000037,"note":57,"velocity":80,"segmentId":3,"isKeyboardDown":true,"keyCode":69},{"time":22499.977500000037,"note":83,"velocity":64,"segmentId":1,"keyCode":187},{"time":22857.12000000004,"note":77,"velocity":80,"segmentId":1,"isKeyboardDown":true,"keyCode":190},{"time":22857.12000000004,"note":65,"velocity":64,"segmentId":2,"keyCode":66},{"time":22857.12000000004,"note":60,"velocity":80,"segmentId":2,"isKeyboardDown":true,"keyCode":53},{"time":22857.12000000004,"note":57,"velocity":64,"segmentId":3,"keyCode":69},{"time":22857.12000000004,"note":57,"velocity":80,"segmentId":3,"isKeyboardDown":true,"keyCode":69},{"time":22976.16750000004,"note":77,"velocity":64,"segmentId":1,"keyCode":190},{"time":23333.31000000004,"note":84,"velocity":80,"segmentId":1,"isKeyboardDown":true,"keyCode":8},{"time":23452.357500000042,"note":84,"velocity":64,"segmentId":1,"keyCode":8},{"time":23809.500000000044,"note":88,"velocity":80,"segmentId":1,"isKeyboardDown":true,"keyCode":189},{"time":23809.500000000044,"note":60,"velocity":64,"segmentId":2,"keyCode":53},{"time":23809.500000000044,"note":60,"velocity":80,"segmentId":2,"isKeyboardDown":true,"keyCode":53},{"time":23928.547500000044,"note":88,"velocity":64,"segmentId":1,"keyCode":189},{"time":24285.690000000046,"note":83,"velocity":80,"segmentId":1,"isKeyboardDown":true,"keyCode":187},{"time":24404.737500000047,"note":83,"velocity":64,"segmentId":1,"keyCode":187},{"time":24761.88000000005,"note":77,"velocity":80,"segmentId":1,"isKeyboardDown":true,"keyCode":190},{"time":24761.88000000005,"note":60,"velocity":64,"segmentId":2,"keyCode":53},{"time":24761.88000000005,"note":57,"velocity":80,"segmentId":2,"isKeyboardDown":true,"keyCode":69},{"time":24761.88000000005,"note":57,"velocity":64,"segmentId":3,"keyCode":69},{"time":24761.88000000005,"note":55,"velocity":80,"segmentId":3,"isKeyboardDown":true,"keyCode":83},{"time":24880.92750000005,"note":77,"velocity":64,"segmentId":1,"keyCode":190},{"time":25238.07000000005,"note":84,"velocity":80,"segmentId":1,"isKeyboardDown":true,"keyCode":8},{"time":25357.11750000005,"note":84,"velocity":64,"segmentId":1,"keyCode":8},{"time":25714.260000000053,"note":88,"velocity":80,"segmentId":1,"isKeyboardDown":true,"keyCode":189},{"time":25714.260000000053,"note":57,"velocity":64,"segmentId":2,"keyCode":69},{"time":25714.260000000053,"note":57,"velocity":80,"segmentId":2,"isKeyboardDown":true,"keyCode":69},{"time":25833.307500000054,"note":88,"velocity":64,"segmentId":1,"keyCode":189},{"time":26190.450000000055,"note":83,"velocity":80,"segmentId":1,"isKeyboardDown":true,"keyCode":187},{"time":26309.497500000056,"note":83,"velocity":64,"segmentId":1,"keyCode":187},{"time":26666.640000000058,"note":77,"velocity":80,"segmentId":1,"isKeyboardDown":true,"keyCode":190},{"time":26666.640000000058,"note":57,"velocity":64,"segmentId":2,"keyCode":69},{"time":26666.640000000058,"note":60,"velocity":80,"segmentId":2,"isKeyboardDown":true,"keyCode":53},{"time":26666.640000000058,"note":55,"velocity":64,"segmentId":3,"keyCode":83},{"time":26666.640000000058,"note":53,"velocity":80,"segmentId":3,"isKeyboardDown":true,"keyCode":90},{"time":26785.68750000006,"note":77,"velocity":64,"segmentId":1,"keyCode":190},{"time":27142.83000000006,"note":84,"velocity":80,"segmentId":1,"isKeyboardDown":true,"keyCode":8},{"time":27142.83000000006,"note":60,"velocity":64,"segmentId":2,"keyCode":53},{"time":27142.83000000006,"note":59,"velocity":80,"segmentId":2,"isKeyboardDown":true,"keyCode":52},{"time":27261.87750000006,"note":84,"velocity":64,"segmentId":1,"keyCode":8},{"time":27619.020000000062,"note":88,"velocity":80,"segmentId":1,"isKeyboardDown":true,"keyCode":189},{"time":27619.020000000062,"note":59,"velocity":64,"segmentId":2,"keyCode":52},{"time":27619.020000000062,"note":57,"velocity":80,"segmentId":2,"isKeyboardDown":true,"keyCode":69},{"time":27738.067500000063,"note":88,"velocity":64,"segmentId":1,"keyCode":189},{"time":28095.210000000065,"note":83,"velocity":80,"segmentId":1,"isKeyboardDown":true,"keyCode":187},{"time":28095.210000000065,"note":57,"velocity":64,"segmentId":2,"keyCode":69},{"time":28095.210000000065,"note":64,"velocity":80,"segmentId":2,"isKeyboardDown":true,"keyCode":71},{"time":28214.257500000065,"note":83,"velocity":64,"segmentId":1,"keyCode":187},{"time":28571.400000000067,"note":77,"velocity":80,"segmentId":1,"isKeyboardDown":true,"keyCode":190},{"time":28571.400000000067,"note":64,"velocity":64,"segmentId":2,"keyCode":71},{"time":28571.400000000067,"note":54,"velocity":80,"segmentId":2,"isKeyboardDown":true,"keyCode":88},{"time":28571.400000000067,"note":53,"velocity":64,"segmentId":3,"keyCode":90},{"time":28571.400000000067,"note":57,"velocity":80,"segmentId":3,"isKeyboardDown":true,"keyCode":69},{"time":28690.447500000068,"note":77,"velocity":64,"segmentId":1,"keyCode":190},{"time":29047.59000000007,"note":84,"velocity":80,"segmentId":1,"isKeyboardDown":true,"keyCode":8},{"time":29047.59000000007,"note":57,"velocity":64,"segmentId":3,"keyCode":69},{"time":29047.59000000007,"note":53,"velocity":80,"segmentId":3,"isKeyboardDown":true,"keyCode":90},{"time":29166.63750000007,"note":84,"velocity":64,"segmentId":1,"keyCode":8},{"time":29523.78000000007,"note":88,"velocity":80,"segmentId":1,"isKeyboardDown":true,"keyCode":189},{"time":29523.78000000007,"note":54,"velocity":64,"segmentId":2,"keyCode":88},{"time":29523.78000000007,"note":54,"velocity":80,"segmentId":2,"isKeyboardDown":true,"keyCode":88},{"time":29523.78000000007,"note":53,"velocity":64,"segmentId":3,"keyCode":90},{"time":29523.78000000007,"note":52,"velocity":80,"segmentId":3,"isKeyboardDown":true,"keyCode":65},{"time":29642.827500000072,"note":88,"velocity":64,"segmentId":1,"keyCode":189},{"time":29999.970000000074,"note":83,"velocity":80,"segmentId":1,"isKeyboardDown":true,"keyCode":187},{"time":29999.970000000074,"note":52,"velocity":64,"segmentId":3,"keyCode":65},{"time":29999.970000000074,"note":57,"velocity":80,"segmentId":3,"isKeyboardDown":true,"keyCode":69},{"time":30119.017500000075,"note":83,"velocity":64,"segmentId":1,"keyCode":187},{"time":30476.160000000076,"note":77,"velocity":80,"segmentId":1,"isKeyboardDown":true,"keyCode":190},{"time":30476.160000000076,"note":54,"velocity":64,"segmentId":2,"keyCode":88},{"time":30476.160000000076,"note":60,"velocity":80,"segmentId":2,"isKeyboardDown":true,"keyCode":53},{"time":30476.160000000076,"note":57,"velocity":64,"segmentId":3,"keyCode":69},{"time":30476.160000000076,"note":88,"velocity":60,"segmentId":4,"isKeyboardDown":true,"isStart":true,"keyCode":189},{"time":30595.207500000077,"note":77,"velocity":64,"segmentId":1,"keyCode":190},{"time":30952.35000000008,"note":84,"velocity":80,"segmentId":1,"isKeyboardDown":true,"keyCode":8},{"time":30952.35000000008,"note":88,"velocity":64,"segmentId":4,"keyCode":189},{"time":30952.35000000008,"note":84,"velocity":60,"segmentId":4,"isKeyboardDown":true,"keyCode":8},{"time":31071.39750000008,"note":84,"velocity":64,"segmentId":1,"keyCode":8},{"time":31428.54000000008,"note":88,"velocity":80,"segmentId":1,"isKeyboardDown":true,"keyCode":189},{"time":31428.54000000008,"note":60,"velocity":64,"segmentId":2,"keyCode":53},{"time":31428.54000000008,"note":60,"velocity":80,"segmentId":2,"isKeyboardDown":true,"keyCode":53},{"time":31428.54000000008,"note":84,"velocity":64,"segmentId":4,"keyCode":8},{"time":31428.54000000008,"note":83,"velocity":60,"segmentId":4,"isKeyboardDown":true,"keyCode":187},{"time":31547.58750000008,"note":88,"velocity":64,"segmentId":1,"keyCode":189},{"time":31904.730000000083,"note":83,"velocity":80,"segmentId":1,"isKeyboardDown":true,"keyCode":187},{"time":31904.730000000083,"note":83,"velocity":64,"segmentId":4,"keyCode":187},{"time":31904.730000000083,"note":88,"velocity":60,"segmentId":4,"isKeyboardDown":true,"keyCode":189},{"time":32023.777500000084,"note":83,"velocity":64,"segmentId":1,"keyCode":187},{"time":32380.920000000086,"note":77,"velocity":80,"segmentId":1,"isKeyboardDown":true,"keyCode":190},{"time":32380.920000000086,"note":60,"velocity":64,"segmentId":2,"keyCode":53},{"time":32380.920000000086,"note":59,"velocity":80,"segmentId":2,"isKeyboardDown":true,"keyCode":52},{"time":32380.920000000086,"note":88,"velocity":64,"segmentId":4,"keyCode":189},{"time":32380.920000000086,"note":88,"velocity":80,"segmentId":4,"isKeyboardDown":true,"keyCode":189},{"time":32499.967500000086,"note":77,"velocity":64,"segmentId":1,"keyCode":190},{"time":32857.11000000009,"note":84,"velocity":80,"segmentId":1,"isKeyboardDown":true,"keyCode":8},{"time":32857.11000000009,"note":88,"velocity":64,"segmentId":4,"keyCode":189},{"time":32857.11000000009,"note":84,"velocity":80,"segmentId":4,"isKeyboardDown":true,"keyCode":8},{"time":32976.15750000009,"note":84,"velocity":64,"segmentId":1,"keyCode":8},{"time":33333.30000000009,"note":88,"velocity":80,"segmentId":1,"isKeyboardDown":true,"keyCode":189},{"time":33333.30000000009,"note":59,"velocity":64,"segmentId":2,"keyCode":52},{"time":33333.30000000009,"note":59,"velocity":80,"segmentId":2,"isKeyboardDown":true,"keyCode":52},{"time":33333.30000000009,"note":84,"velocity":64,"segmentId":4,"keyCode":8},{"time":33333.30000000009,"note":83,"velocity":80,"segmentId":4,"isKeyboardDown":true,"keyCode":187},{"time":33452.34750000009,"note":88,"velocity":64,"segmentId":1,"keyCode":189},{"time":33809.49000000009,"note":83,"velocity":80,"segmentId":1,"isKeyboardDown":true,"keyCode":187},{"time":33809.49000000009,"note":83,"velocity":64,"segmentId":4,"keyCode":187},{"time":33809.49000000009,"note":88,"velocity":80,"segmentId":4,"isKeyboardDown":true,"keyCode":189},{"time":33928.53750000009,"note":83,"velocity":64,"segmentId":1,"keyCode":187},{"time":34285.680000000095,"note":77,"velocity":80,"segmentId":1,"isKeyboardDown":true,"keyCode":190},{"time":34285.680000000095,"note":59,"velocity":64,"segmentId":2,"keyCode":52},{"time":34285.680000000095,"note":64,"velocity":80,"segmentId":2,"isKeyboardDown":true,"keyCode":71},{"time":34285.680000000095,"note":88,"velocity":64,"segmentId":4,"keyCode":189},{"time":34285.680000000095,"note":91,"velocity":80,"segmentId":4,"isKeyboardDown":true,"keyCode":75},{"time":34404.727500000095,"note":77,"velocity":64,"segmentId":1,"keyCode":190},{"time":34761.8700000001,"note":84,"velocity":80,"segmentId":1,"isKeyboardDown":true,"keyCode":8},{"time":34761.8700000001,"note":64,"velocity":64,"segmentId":2,"keyCode":71},{"time":34761.8700000001,"note":60,"velocity":80,"segmentId":2,"isKeyboardDown":true,"keyCode":53},{"time":34761.8700000001,"note":91,"velocity":64,"segmentId":4,"keyCode":75},{"time":34761.8700000001,"note":84,"velocity":80,"segmentId":4,"isKeyboardDown":true,"keyCode":8},{"time":34880.9175000001,"note":84,"velocity":64,"segmentId":1,"keyCode":8},{"time":35238.0600000001,"note":88,"velocity":80,"segmentId":1,"isKeyboardDown":true,"keyCode":189},{"time":35238.0600000001,"note":60,"velocity":64,"segmentId":2,"keyCode":53},{"time":35238.0600000001,"note":59,"velocity":80,"segmentId":2,"isKeyboardDown":true,"keyCode":52},{"time":35238.0600000001,"note":84,"velocity":64,"segmentId":4,"keyCode":8},{"time":35238.0600000001,"note":83,"velocity":80,"segmentId":4,"isKeyboardDown":true,"keyCode":187},{"time":35357.1075000001,"note":88,"velocity":64,"segmentId":1,"keyCode":189},{"time":35714.2500000001,"note":83,"velocity":80,"segmentId":1,"isKeyboardDown":true,"keyCode":187},{"time":35714.2500000001,"note":59,"velocity":64,"segmentId":2,"keyCode":52},{"time":35714.2500000001,"note":64,"velocity":80,"segmentId":2,"isKeyboardDown":true,"keyCode":71},{"time":35714.2500000001,"note":83,"velocity":64,"segmentId":4,"keyCode":187},{"time":35714.2500000001,"note":93,"velocity":80,"segmentId":4,"isKeyboardDown":true,"keyCode":55},{"time":35833.2975000001,"note":83,"velocity":64,"segmentId":1,"keyCode":187},{"time":36190.440000000104,"note":77,"velocity":80,"segmentId":1,"isKeyboardDown":true,"keyCode":190},{"time":36190.440000000104,"note":64,"velocity":64,"segmentId":2,"keyCode":71},{"time":36190.440000000104,"note":53,"velocity":80,"segmentId":2,"isKeyboardDown":true,"keyCode":90},{"time":36190.440000000104,"note":57,"velocity":80,"segmentId":3,"isKeyboardDown":true,"keyCode":69},{"time":36190.440000000104,"note":93,"velocity":64,"segmentId":4,"keyCode":55},{"time":36309.487500000105,"note":77,"velocity":64,"segmentId":1,"keyCode":190},{"time":36666.63000000011,"note":84,"velocity":80,"segmentId":1,"isKeyboardDown":true,"keyCode":8},{"time":36666.63000000011,"note":57,"velocity":64,"segmentId":3,"keyCode":69},{"time":36666.63000000011,"note":53,"velocity":80,"segmentId":3,"isKeyboardDown":true,"keyCode":90},{"time":36785.67750000011,"note":84,"velocity":64,"segmentId":1,"keyCode":8},{"time":37142.82000000011,"note":88,"velocity":80,"segmentId":1,"isKeyboardDown":true,"keyCode":189},{"time":37142.82000000011,"note":53,"velocity":64,"segmentId":2,"keyCode":90},{"time":37142.82000000011,"note":53,"velocity":80,"segmentId":2,"isKeyboardDown":true,"keyCode":90},{"time":37142.82000000011,"note":53,"velocity":64,"segmentId":3,"keyCode":90},{"time":37142.82000000011,"note":52,"velocity":80,"segmentId":3,"isKeyboardDown":true,"keyCode":65},{"time":37261.86750000011,"note":88,"velocity":64,"segmentId":1,"keyCode":189},{"time":37619.01000000011,"note":83,"velocity":80,"segmentId":1,"isKeyboardDown":true,"keyCode":187},{"time":37619.01000000011,"note":52,"velocity":64,"segmentId":3,"keyCode":65},{"time":37619.01000000011,"note":57,"velocity":80,"segmentId":3,"isKeyboardDown":true,"keyCode":69},{"time":37738.05750000011,"note":83,"velocity":64,"segmentId":1,"keyCode":187},{"time":38095.20000000011,"note":77,"velocity":80,"segmentId":1,"isKeyboardDown":true,"keyCode":190},{"time":38095.20000000011,"note":53,"velocity":64,"segmentId":2,"keyCode":90},{"time":38095.20000000011,"note":57,"velocity":64,"segmentId":3,"keyCode":69},{"time":38095.20000000011,"note":57,"velocity":80,"segmentId":3,"isKeyboardDown":true,"keyCode":69},{"time":38214.247500000114,"note":77,"velocity":64,"segmentId":1,"keyCode":190},{"time":38571.390000000116,"note":84,"velocity":80,"segmentId":1,"isKeyboardDown":true,"keyCode":8},{"time":38690.43750000012,"note":84,"velocity":64,"segmentId":1,"keyCode":8},{"time":39047.58000000012,"note":88,"velocity":80,"segmentId":1,"isKeyboardDown":true,"keyCode":189},{"time":39166.62750000012,"note":88,"velocity":64,"segmentId":1,"keyCode":189},{"time":39523.77000000012,"note":83,"velocity":80,"segmentId":1,"isKeyboardDown":true,"keyCode":187},{"time":39642.81750000012,"note":83,"velocity":64,"segmentId":1,"keyCode":187},{"time":39999.96000000012,"note":77,"velocity":80,"segmentId":1,"isKeyboardDown":true,"keyCode":190},{"time":39999.96000000012,"note":57,"velocity":64,"segmentId":3,"keyCode":69},{"time":39999.96000000012,"note":55,"velocity":80,"segmentId":3,"isKeyboardDown":true,"keyCode":83},{"time":40119.00750000012,"note":77,"velocity":64,"segmentId":1,"keyCode":190},{"time":40476.150000000125,"note":84,"velocity":80,"segmentId":1,"isKeyboardDown":true,"keyCode":8},{"time":40595.197500000126,"note":84,"velocity":64,"segmentId":1,"keyCode":8},{"time":40952.34000000013,"note":88,"velocity":80,"segmentId":1,"isKeyboardDown":true,"keyCode":189},{"time":41071.38750000013,"note":88,"velocity":64,"segmentId":1,"keyCode":189},{"time":41428.53000000013,"note":83,"velocity":80,"segmentId":1,"isKeyboardDown":true,"keyCode":187},{"time":41547.57750000013,"note":83,"velocity":64,"segmentId":1,"keyCode":187},{"time":41904.72000000013,"note":77,"velocity":80,"segmentId":1,"isKeyboardDown":true,"keyCode":190},{"time":41904.72000000013,"note":55,"velocity":64,"segmentId":3,"keyCode":83},{"time":41904.72000000013,"note":53,"velocity":80,"segmentId":3,"isKeyboardDown":true,"keyCode":90},{"time":42023.76750000013,"note":77,"velocity":64,"segmentId":1,"keyCode":190},{"time":42380.910000000134,"note":84,"velocity":80,"segmentId":1,"isKeyboardDown":true,"keyCode":8},{"time":42499.957500000135,"note":84,"velocity":64,"segmentId":1,"keyCode":8},{"time":42857.10000000014,"note":88,"velocity":80,"segmentId":1,"isKeyboardDown":true,"keyCode":189},{"time":42976.14750000014,"note":88,"velocity":64,"segmentId":1,"keyCode":189},{"time":43333.29000000014,"note":83,"velocity":80,"segmentId":1,"isKeyboardDown":true,"keyCode":187},{"time":43452.33750000014,"note":83,"velocity":64,"segmentId":1,"keyCode":187},{"time":43809.48000000014,"note":77,"velocity":80,"segmentId":1,"isKeyboardDown":true,"keyCode":190},{"time":43809.48000000014,"note":53,"velocity":64,"segmentId":3,"keyCode":90},{"time":43809.48000000014,"note":57,"velocity":80,"segmentId":3,"isKeyboardDown":true,"keyCode":69},{"time":43928.52750000014,"note":77,"velocity":64,"segmentId":1,"keyCode":190},{"time":44285.670000000144,"note":84,"velocity":80,"segmentId":1,"isKeyboardDown":true,"keyCode":8},{"time":44285.670000000144,"note":57,"velocity":64,"segmentId":3,"keyCode":69},{"time":44285.670000000144,"note":53,"velocity":80,"segmentId":3,"isKeyboardDown":true,"keyCode":90},{"time":44404.717500000144,"note":84,"velocity":64,"segmentId":1,"keyCode":8},{"time":44761.860000000146,"note":88,"velocity":80,"segmentId":1,"isKeyboardDown":true,"keyCode":189},{"time":44761.860000000146,"note":53,"velocity":64,"segmentId":3,"keyCode":90},{"time":44761.860000000146,"note":52,"velocity":80,"segmentId":3,"isKeyboardDown":true,"keyCode":65},{"time":44880.90750000015,"note":88,"velocity":64,"segmentId":1,"keyCode":189},{"time":45238.05000000015,"note":83,"velocity":80,"segmentId":1,"isKeyboardDown":true,"keyCode":187},{"time":45238.05000000015,"note":52,"velocity":64,"segmentId":3,"keyCode":65},{"time":45238.05000000015,"note":57,"velocity":80,"segmentId":3,"isKeyboardDown":true,"keyCode":69},{"time":45357.09750000015,"note":83,"velocity":64,"segmentId":1,"keyCode":187},{"time":45714.24000000015,"note":77,"velocity":80,"segmentId":1,"isKeyboardDown":true,"keyCode":190},{"time":45714.24000000015,"note":60,"velocity":80,"segmentId":2,"isKeyboardDown":true,"keyCode":53},{"time":45714.24000000015,"note":57,"velocity":64,"segmentId":3,"keyCode":69},{"time":45714.24000000015,"note":57,"velocity":80,"segmentId":3,"isKeyboardDown":true,"keyCode":69},{"time":45833.28750000015,"note":77,"velocity":64,"segmentId":1,"keyCode":190},{"time":46190.43000000015,"note":84,"velocity":80,"segmentId":1,"isKeyboardDown":true,"keyCode":8},{"time":46309.477500000154,"note":84,"velocity":64,"segmentId":1,"keyCode":8},{"time":46666.620000000155,"note":88,"velocity":80,"segmentId":1,"isKeyboardDown":true,"keyCode":189},{"time":46666.620000000155,"note":60,"velocity":64,"segmentId":2,"keyCode":53},{"time":46666.620000000155,"note":60,"velocity":80,"segmentId":2,"isKeyboardDown":true,"keyCode":53},{"time":46785.667500000156,"note":88,"velocity":64,"segmentId":1,"keyCode":189},{"time":47142.81000000016,"note":83,"velocity":80,"segmentId":1,"isKeyboardDown":true,"keyCode":187},{"time":47261.85750000016,"note":83,"velocity":64,"segmentId":1,"keyCode":187},{"time":47619.00000000016,"note":77,"velocity":80,"segmentId":1,"isKeyboardDown":true,"keyCode":190},{"time":47619.00000000016,"note":60,"velocity":64,"segmentId":2,"keyCode":53},{"time":47619.00000000016,"note":57,"velocity":80,"segmentId":2,"isKeyboardDown":true,"keyCode":69},{"time":47619.00000000016,"note":57,"velocity":64,"segmentId":3,"keyCode":69},{"time":47619.00000000016,"note":55,"velocity":80,"segmentId":3,"isKeyboardDown":true,"keyCode":83},{"time":47738.04750000016,"note":77,"velocity":64,"segmentId":1,"keyCode":190},{"time":48095.19000000016,"note":84,"velocity":80,"segmentId":1,"isKeyboardDown":true,"keyCode":8},{"time":48214.23750000016,"note":84,"velocity":64,"segmentId":1,"keyCode":8},{"time":48571.380000000165,"note":88,"velocity":80,"segmentId":1,"isKeyboardDown":true,"keyCode":189},{"time":48571.380000000165,"note":57,"velocity":64,"segmentId":2,"keyCode":69},{"time":48571.380000000165,"note":57,"velocity":80,"segmentId":2,"isKeyboardDown":true,"keyCode":69},{"time":48690.427500000165,"note":88,"velocity":64,"segmentId":1,"keyCode":189},{"time":49047.57000000017,"note":83,"velocity":80,"segmentId":1,"isKeyboardDown":true,"keyCode":187},{"time":49166.61750000017,"note":83,"velocity":64,"segmentId":1,"keyCode":187},{"time":49523.76000000017,"note":77,"velocity":80,"segmentId":1,"isKeyboardDown":true,"keyCode":190},{"time":49523.76000000017,"note":57,"velocity":64,"segmentId":2,"keyCode":69},{"time":49523.76000000017,"note":60,"velocity":80,"segmentId":2,"isKeyboardDown":true,"keyCode":53},{"time":49523.76000000017,"note":55,"velocity":64,"segmentId":3,"keyCode":83},{"time":49523.76000000017,"note":53,"velocity":80,"segmentId":3,"isKeyboardDown":true,"keyCode":90},{"time":49642.80750000017,"note":77,"velocity":64,"segmentId":1,"keyCode":190},{"time":49999.95000000017,"note":84,"velocity":80,"segmentId":1,"isKeyboardDown":true,"keyCode":8},{"time":49999.95000000017,"note":60,"velocity":64,"segmentId":2,"keyCode":53},{"time":49999.95000000017,"note":59,"velocity":80,"segmentId":2,"isKeyboardDown":true,"keyCode":52},{"time":50118.99750000017,"note":84,"velocity":64,"segmentId":1,"keyCode":8},{"time":50476.140000000174,"note":88,"velocity":80,"segmentId":1,"isKeyboardDown":true,"keyCode":189},{"time":50476.140000000174,"note":59,"velocity":64,"segmentId":2,"keyCode":52},{"time":50476.140000000174,"note":57,"velocity":80,"segmentId":2,"isKeyboardDown":true,"keyCode":69},{"time":50595.187500000175,"note":88,"velocity":64,"segmentId":1,"keyCode":189},{"time":50952.33000000018,"note":83,"velocity":80,"segmentId":1,"isKeyboardDown":true,"keyCode":187},{"time":50952.33000000018,"note":57,"velocity":64,"segmentId":2,"keyCode":69},{"time":50952.33000000018,"note":64,"velocity":80,"segmentId":2,"isKeyboardDown":true,"keyCode":71},{"time":51071.37750000018,"note":83,"velocity":64,"segmentId":1,"keyCode":187},{"time":51428.52000000018,"note":77,"velocity":80,"segmentId":1,"isKeyboardDown":true,"keyCode":190},{"time":51428.52000000018,"note":64,"velocity":64,"segmentId":2,"keyCode":71},{"time":51428.52000000018,"note":54,"velocity":80,"segmentId":2,"isKeyboardDown":true,"keyCode":88},{"time":51428.52000000018,"note":53,"velocity":64,"segmentId":3,"keyCode":90},{"time":51428.52000000018,"note":57,"velocity":80,"segmentId":3,"isKeyboardDown":true,"keyCode":69},{"time":51547.56750000018,"note":77,"velocity":64,"segmentId":1,"keyCode":190},{"time":51904.71000000018,"note":84,"velocity":80,"segmentId":1,"isKeyboardDown":true,"keyCode":8},{"time":51904.71000000018,"note":57,"velocity":64,"segmentId":3,"keyCode":69},{"time":51904.71000000018,"note":53,"velocity":80,"segmentId":3,"isKeyboardDown":true,"keyCode":90},{"time":52023.75750000018,"note":84,"velocity":64,"segmentId":1,"keyCode":8},{"time":52380.90000000018,"note":88,"velocity":80,"segmentId":1,"isKeyboardDown":true,"keyCode":189},{"time":52380.90000000018,"note":54,"velocity":64,"segmentId":2,"keyCode":88},{"time":52380.90000000018,"note":54,"velocity":80,"segmentId":2,"isKeyboardDown":true,"keyCode":88},{"time":52380.90000000018,"note":53,"velocity":64,"segmentId":3,"keyCode":90},{"time":52380.90000000018,"note":52,"velocity":80,"segmentId":3,"isKeyboardDown":true,"keyCode":65},{"time":52499.947500000184,"note":88,"velocity":64,"segmentId":1,"keyCode":189},{"time":52857.090000000186,"note":83,"velocity":80,"segmentId":1,"isKeyboardDown":true,"keyCode":187},{"time":52857.090000000186,"note":52,"velocity":64,"segmentId":3,"keyCode":65},{"time":52857.090000000186,"note":57,"velocity":80,"segmentId":3,"isKeyboardDown":true,"keyCode":69},{"time":52976.137500000186,"note":83,"velocity":64,"segmentId":1,"keyCode":187},{"time":53333.28000000019,"note":77,"velocity":80,"segmentId":1,"isKeyboardDown":true,"keyCode":190},{"time":53333.28000000019,"note":54,"velocity":64,"segmentId":2,"keyCode":88},{"time":53333.28000000019,"note":60,"velocity":80,"segmentId":2,"isKeyboardDown":true,"keyCode":53},{"time":53333.28000000019,"note":57,"velocity":64,"segmentId":3,"keyCode":69},{"time":53333.28000000019,"note":57,"velocity":80,"segmentId":3,"isKeyboardDown":true,"keyCode":69},{"time":53452.32750000019,"note":77,"velocity":64,"segmentId":1,"keyCode":190},{"time":53809.47000000019,"note":84,"velocity":80,"segmentId":1,"isKeyboardDown":true,"keyCode":8},{"time":53928.51750000019,"note":84,"velocity":64,"segmentId":1,"keyCode":8},{"time":54285.66000000019,"note":88,"velocity":80,"segmentId":1,"isKeyboardDown":true,"keyCode":189},{"time":54285.66000000019,"note":60,"velocity":64,"segmentId":2,"keyCode":53},{"time":54285.66000000019,"note":60,"velocity":80,"segmentId":2,"isKeyboardDown":true,"keyCode":53},{"time":54404.70750000019,"note":88,"velocity":64,"segmentId":1,"keyCode":189},{"time":54761.850000000195,"note":83,"velocity":80,"segmentId":1,"isKeyboardDown":true,"keyCode":187},{"time":54880.897500000196,"note":83,"velocity":64,"segmentId":1,"keyCode":187},{"time":55238.0400000002,"note":77,"velocity":80,"segmentId":1,"isKeyboardDown":true,"keyCode":190},{"time":55238.0400000002,"note":60,"velocity":64,"segmentId":2,"keyCode":53},{"time":55238.0400000002,"note":59,"velocity":80,"segmentId":2,"isKeyboardDown":true,"keyCode":52},{"time":55238.0400000002,"note":57,"velocity":64,"segmentId":3,"keyCode":69},{"time":55238.0400000002,"note":55,"velocity":80,"segmentId":3,"isKeyboardDown":true,"keyCode":83},{"time":55357.0875000002,"note":77,"velocity":64,"segmentId":1,"keyCode":190},{"time":55714.2300000002,"note":84,"velocity":80,"segmentId":1,"isKeyboardDown":true,"keyCode":8},{"time":55833.2775000002,"note":84,"velocity":64,"segmentId":1,"keyCode":8},{"time":56190.4200000002,"note":88,"velocity":80,"segmentId":1,"isKeyboardDown":true,"keyCode":189},{"time":56190.4200000002,"note":59,"velocity":64,"segmentId":2,"keyCode":52},{"time":56190.4200000002,"note":59,"velocity":80,"segmentId":2,"isKeyboardDown":true,"keyCode":52},{"time":56309.4675000002,"note":88,"velocity":64,"segmentId":1,"keyCode":189},{"time":56666.610000000204,"note":83,"velocity":80,"segmentId":1,"isKeyboardDown":true,"keyCode":187},{"time":56785.657500000205,"note":83,"velocity":64,"segmentId":1,"keyCode":187},{"time":57142.80000000021,"note":77,"velocity":80,"segmentId":1,"isKeyboardDown":true,"keyCode":190},{"time":57142.80000000021,"note":59,"velocity":64,"segmentId":2,"keyCode":52},{"time":57142.80000000021,"note":64,"velocity":80,"segmentId":2,"isKeyboardDown":true,"keyCode":71},{"time":57142.80000000021,"note":55,"velocity":64,"segmentId":3,"keyCode":83},{"time":57142.80000000021,"note":53,"velocity":80,"segmentId":3,"isKeyboardDown":true,"keyCode":90},{"time":57261.84750000021,"note":77,"velocity":64,"segmentId":1,"keyCode":190},{"time":57618.99000000021,"note":84,"velocity":80,"segmentId":1,"isKeyboardDown":true,"keyCode":8},{"time":57618.99000000021,"note":64,"velocity":64,"segmentId":2,"keyCode":71},{"time":57618.99000000021,"note":60,"velocity":80,"segmentId":2,"isKeyboardDown":true,"keyCode":53},{"time":57738.03750000021,"note":84,"velocity":64,"segmentId":1,"keyCode":8},{"time":58095.18000000021,"note":88,"velocity":80,"segmentId":1,"isKeyboardDown":true,"keyCode":189},{"time":58095.18000000021,"note":60,"velocity":64,"segmentId":2,"keyCode":53},{"time":58095.18000000021,"note":59,"velocity":80,"segmentId":2,"isKeyboardDown":true,"keyCode":52},{"time":58214.22750000021,"note":88,"velocity":64,"segmentId":1,"keyCode":189},{"time":58571.37000000021,"note":83,"velocity":80,"segmentId":1,"isKeyboardDown":true,"keyCode":187},{"time":58571.37000000021,"note":59,"velocity":64,"segmentId":2,"keyCode":52},{"time":58571.37000000021,"note":64,"velocity":80,"segmentId":2,"isKeyboardDown":true,"keyCode":71},{"time":58690.417500000214,"note":83,"velocity":64,"segmentId":1,"keyCode":187},{"time":59047.560000000216,"note":77,"velocity":80,"segmentId":1,"isKeyboardDown":true,"keyCode":190},{"time":59047.560000000216,"note":64,"velocity":64,"segmentId":2,"keyCode":71},{"time":59047.560000000216,"note":65,"velocity":80,"segmentId":2,"isKeyboardDown":true,"keyCode":66},{"time":59047.560000000216,"note":53,"velocity":64,"segmentId":3,"keyCode":90},{"time":59047.560000000216,"note":57,"velocity":80,"segmentId":3,"isKeyboardDown":true,"keyCode":69},{"time":59166.60750000022,"note":77,"velocity":64,"segmentId":1,"keyCode":190},{"time":59523.75000000022,"note":84,"velocity":80,"segmentId":1,"isKeyboardDown":true,"keyCode":8},{"time":59523.75000000022,"note":57,"velocity":64,"segmentId":3,"keyCode":69},{"time":59523.75000000022,"note":53,"velocity":80,"segmentId":3,"isKeyboardDown":true,"keyCode":90},{"time":59642.79750000022,"note":84,"velocity":64,"segmentId":1,"keyCode":8},{"time":59999.94000000022,"note":88,"velocity":80,"segmentId":1,"isKeyboardDown":true,"keyCode":189},{"time":59999.94000000022,"note":65,"velocity":64,"segmentId":2,"keyCode":66},{"time":59999.94000000022,"note":65,"velocity":80,"segmentId":2,"isKeyboardDown":true,"keyCode":66},{"time":59999.94000000022,"note":53,"velocity":64,"segmentId":3,"keyCode":90},{"time":59999.94000000022,"note":52,"velocity":80,"segmentId":3,"isKeyboardDown":true,"keyCode":65},{"time":60118.98750000022,"note":88,"velocity":64,"segmentId":1,"keyCode":189},{"time":60476.13000000022,"note":83,"velocity":80,"segmentId":1,"isKeyboardDown":true,"keyCode":187},{"time":60476.13000000022,"note":52,"velocity":64,"segmentId":3,"keyCode":65},{"time":60476.13000000022,"note":57,"velocity":80,"segmentId":3,"isKeyboardDown":true,"keyCode":69},{"time":60595.17750000022,"note":83,"velocity":64,"segmentId":1,"keyCode":187},{"time":60952.320000000225,"note":77,"velocity":80,"segmentId":1,"isKeyboardDown":true,"keyCode":190},{"time":60952.320000000225,"note":65,"velocity":64,"segmentId":2,"keyCode":66},{"time":60952.320000000225,"note":60,"velocity":80,"segmentId":2,"isKeyboardDown":true,"keyCode":53},{"time":60952.320000000225,"note":57,"velocity":64,"segmentId":3,"keyCode":69},{"time":60952.320000000225,"note":57,"velocity":80,"segmentId":3,"isKeyboardDown":true,"keyCode":69},{"time":61071.367500000226,"note":77,"velocity":64,"segmentId":1,"keyCode":190},{"time":61428.51000000023,"note":84,"velocity":80,"segmentId":1,"isKeyboardDown":true,"keyCode":8},{"time":61547.55750000023,"note":84,"velocity":64,"segmentId":1,"keyCode":8},{"time":61904.70000000023,"note":88,"velocity":80,"segmentId":1,"isKeyboardDown":true,"keyCode":189},{"time":61904.70000000023,"note":60,"velocity":64,"segmentId":2,"keyCode":53},{"time":61904.70000000023,"note":60,"velocity":80,"segmentId":2,"isKeyboardDown":true,"keyCode":53},{"time":62023.74750000023,"note":88,"velocity":64,"segmentId":1,"keyCode":189},{"time":62380.89000000023,"note":83,"velocity":80,"segmentId":1,"isKeyboardDown":true,"keyCode":187},{"time":62499.93750000023,"note":83,"velocity":64,"segmentId":1,"keyCode":187},{"time":62857.080000000235,"note":77,"velocity":80,"segmentId":1,"isKeyboardDown":true,"keyCode":190},{"time":62857.080000000235,"note":60,"velocity":64,"segmentId":2,"keyCode":53},{"time":62857.080000000235,"note":57,"velocity":80,"segmentId":2,"isKeyboardDown":true,"keyCode":69},{"time":62857.080000000235,"note":57,"velocity":64,"segmentId":3,"keyCode":69},{"time":62857.080000000235,"note":55,"velocity":80,"segmentId":3,"isKeyboardDown":true,"keyCode":83},{"time":62976.127500000235,"note":77,"velocity":64,"segmentId":1,"keyCode":190},{"time":63333.27000000024,"note":84,"velocity":80,"segmentId":1,"isKeyboardDown":true,"keyCode":8},{"time":63452.31750000024,"note":84,"velocity":64,"segmentId":1,"keyCode":8},{"time":63809.46000000024,"note":88,"velocity":80,"segmentId":1,"isKeyboardDown":true,"keyCode":189},{"time":63809.46000000024,"note":57,"velocity":64,"segmentId":2,"keyCode":69},{"time":63809.46000000024,"note":57,"velocity":80,"segmentId":2,"isKeyboardDown":true,"keyCode":69},{"time":63928.50750000024,"note":88,"velocity":64,"segmentId":1,"keyCode":189},{"time":64285.65000000024,"note":83,"velocity":80,"segmentId":1,"isKeyboardDown":true,"keyCode":187},{"time":64404.69750000024,"note":83,"velocity":64,"segmentId":1,"keyCode":187},{"time":64761.840000000244,"note":77,"velocity":80,"segmentId":1,"isKeyboardDown":true,"keyCode":190},{"time":64761.840000000244,"note":57,"velocity":64,"segmentId":2,"keyCode":69},{"time":64761.840000000244,"note":60,"velocity":80,"segmentId":2,"isKeyboardDown":true,"keyCode":53},{"time":64761.840000000244,"note":55,"velocity":64,"segmentId":3,"keyCode":83},{"time":64761.840000000244,"note":53,"velocity":80,"segmentId":3,"isKeyboardDown":true,"keyCode":90},{"time":64880.887500000244,"note":77,"velocity":64,"segmentId":1,"keyCode":190},{"time":65238.030000000246,"note":84,"velocity":80,"segmentId":1,"isKeyboardDown":true,"keyCode":8},{"time":65238.030000000246,"note":60,"velocity":64,"segmentId":2,"keyCode":53},{"time":65238.030000000246,"note":59,"velocity":80,"segmentId":2,"isKeyboardDown":true,"keyCode":52},{"time":65357.07750000025,"note":84,"velocity":64,"segmentId":1,"keyCode":8},{"time":65714.22000000025,"note":88,"velocity":80,"segmentId":1,"isKeyboardDown":true,"keyCode":189},{"time":65714.22000000025,"note":59,"velocity":64,"segmentId":2,"keyCode":52},{"time":65714.22000000025,"note":57,"velocity":80,"segmentId":2,"isKeyboardDown":true,"keyCode":69},{"time":65833.26750000025,"note":88,"velocity":64,"segmentId":1,"keyCode":189},{"time":66190.41000000025,"note":83,"velocity":80,"segmentId":1,"isKeyboardDown":true,"keyCode":187},{"time":66190.41000000025,"note":57,"velocity":64,"segmentId":2,"keyCode":69},{"time":66190.41000000025,"note":64,"velocity":80,"segmentId":2,"isKeyboardDown":true,"keyCode":71},{"time":66309.45750000025,"note":83,"velocity":64,"segmentId":1,"keyCode":187},{"time":66666.60000000025,"note":77,"velocity":80,"segmentId":1,"isKeyboardDown":true,"keyCode":190},{"time":66666.60000000025,"note":64,"velocity":64,"segmentId":2,"keyCode":71},{"time":66666.60000000025,"note":54,"velocity":80,"segmentId":2,"isKeyboardDown":true,"keyCode":88},{"time":66666.60000000025,"note":53,"velocity":64,"segmentId":3,"keyCode":90},{"time":66666.60000000025,"note":57,"velocity":80,"segmentId":3,"isKeyboardDown":true,"keyCode":69},{"time":66785.64750000025,"note":77,"velocity":64,"segmentId":1,"keyCode":190},{"time":67142.79000000026,"note":84,"velocity":80,"segmentId":1,"isKeyboardDown":true,"keyCode":8},{"time":67142.79000000026,"note":57,"velocity":64,"segmentId":3,"keyCode":69},{"time":67142.79000000026,"note":53,"velocity":80,"segmentId":3,"isKeyboardDown":true,"keyCode":90},{"time":67261.83750000026,"note":84,"velocity":64,"segmentId":1,"keyCode":8},{"time":67618.98000000026,"note":88,"velocity":80,"segmentId":1,"isKeyboardDown":true,"keyCode":189},{"time":67618.98000000026,"note":54,"velocity":64,"segmentId":2,"keyCode":88},{"time":67618.98000000026,"note":54,"velocity":80,"segmentId":2,"isKeyboardDown":true,"keyCode":88},{"time":67618.98000000026,"note":53,"velocity":64,"segmentId":3,"keyCode":90},{"time":67618.98000000026,"note":52,"velocity":80,"segmentId":3,"isKeyboardDown":true,"keyCode":65},{"time":67738.02750000026,"note":88,"velocity":64,"segmentId":1,"keyCode":189},{"time":68095.17000000026,"note":83,"velocity":80,"segmentId":1,"isKeyboardDown":true,"keyCode":187},{"time":68095.17000000026,"note":52,"velocity":64,"segmentId":3,"keyCode":65},{"time":68095.17000000026,"note":57,"velocity":80,"segmentId":3,"isKeyboardDown":true,"keyCode":69},{"time":68214.21750000026,"note":83,"velocity":64,"segmentId":1,"keyCode":187},{"time":68571.36000000026,"note":77,"velocity":80,"segmentId":1,"isKeyboardDown":true,"keyCode":190},{"time":68571.36000000026,"note":54,"velocity":64,"segmentId":2,"keyCode":88},{"time":68571.36000000026,"note":60,"velocity":80,"segmentId":2,"isKeyboardDown":true,"keyCode":53},{"time":68571.36000000026,"note":57,"velocity":64,"segmentId":3,"keyCode":69},{"time":68571.36000000026,"note":88,"velocity":60,"segmentId":4,"isKeyboardDown":true,"keyCode":189},{"time":68690.40750000026,"note":77,"velocity":64,"segmentId":1,"keyCode":190},{"time":69047.55000000026,"note":84,"velocity":80,"segmentId":1,"isKeyboardDown":true,"keyCode":8},{"time":69047.55000000026,"note":88,"velocity":64,"segmentId":4,"keyCode":189},{"time":69047.55000000026,"note":84,"velocity":60,"segmentId":4,"isKeyboardDown":true,"keyCode":8},{"time":69166.59750000027,"note":84,"velocity":64,"segmentId":1,"keyCode":8},{"time":69523.74000000027,"note":88,"velocity":80,"segmentId":1,"isKeyboardDown":true,"keyCode":189},{"time":69523.74000000027,"note":60,"velocity":64,"segmentId":2,"keyCode":53},{"time":69523.74000000027,"note":60,"velocity":80,"segmentId":2,"isKeyboardDown":true,"keyCode":53},{"time":69523.74000000027,"note":84,"velocity":64,"segmentId":4,"keyCode":8},{"time":69523.74000000027,"note":83,"velocity":60,"segmentId":4,"isKeyboardDown":true,"keyCode":187},{"time":69642.78750000027,"note":88,"velocity":64,"segmentId":1,"keyCode":189},{"time":69999.93000000027,"note":83,"velocity":80,"segmentId":1,"isKeyboardDown":true,"keyCode":187},{"time":69999.93000000027,"note":83,"velocity":64,"segmentId":4,"keyCode":187},{"time":69999.93000000027,"note":88,"velocity":60,"segmentId":4,"isKeyboardDown":true,"keyCode":189},{"time":70118.97750000027,"note":83,"velocity":64,"segmentId":1,"keyCode":187},{"time":70476.12000000027,"note":77,"velocity":80,"segmentId":1,"isKeyboardDown":true,"keyCode":190},{"time":70476.12000000027,"note":60,"velocity":64,"segmentId":2,"keyCode":53},{"time":70476.12000000027,"note":59,"velocity":80,"segmentId":2,"isKeyboardDown":true,"keyCode":52},{"time":70476.12000000027,"note":88,"velocity":64,"segmentId":4,"keyCode":189},{"time":70476.12000000027,"note":88,"velocity":80,"segmentId":4,"isKeyboardDown":true,"keyCode":189},{"time":70595.16750000027,"note":77,"velocity":64,"segmentId":1,"keyCode":190},{"time":70952.31000000027,"note":84,"velocity":80,"segmentId":1,"isKeyboardDown":true,"keyCode":8},{"time":70952.31000000027,"note":88,"velocity":64,"segmentId":4,"keyCode":189},{"time":70952.31000000027,"note":84,"velocity":80,"segmentId":4,"isKeyboardDown":true,"keyCode":8},{"time":71071.35750000027,"note":84,"velocity":64,"segmentId":1,"keyCode":8},{"time":71428.50000000028,"note":88,"velocity":80,"segmentId":1,"isKeyboardDown":true,"keyCode":189},{"time":71428.50000000028,"note":59,"velocity":64,"segmentId":2,"keyCode":52},{"time":71428.50000000028,"note":59,"velocity":80,"segmentId":2,"isKeyboardDown":true,"keyCode":52},{"time":71428.50000000028,"note":84,"velocity":64,"segmentId":4,"keyCode":8},{"time":71428.50000000028,"note":83,"velocity":80,"segmentId":4,"isKeyboardDown":true,"keyCode":187},{"time":71547.54750000028,"note":88,"velocity":64,"segmentId":1,"keyCode":189},{"time":71904.69000000028,"note":83,"velocity":80,"segmentId":1,"isKeyboardDown":true,"keyCode":187},{"time":71904.69000000028,"note":83,"velocity":64,"segmentId":4,"keyCode":187},{"time":71904.69000000028,"note":88,"velocity":80,"segmentId":4,"isKeyboardDown":true,"keyCode":189},{"time":72023.73750000028,"note":83,"velocity":64,"segmentId":1,"keyCode":187},{"time":72380.88000000028,"note":77,"velocity":80,"segmentId":1,"isKeyboardDown":true,"keyCode":190},{"time":72380.88000000028,"note":59,"velocity":64,"segmentId":2,"keyCode":52},{"time":72380.88000000028,"note":64,"velocity":80,"segmentId":2,"isKeyboardDown":true,"keyCode":71},{"time":72380.88000000028,"note":88,"velocity":64,"segmentId":4,"keyCode":189},{"time":72380.88000000028,"note":91,"velocity":80,"segmentId":4,"isKeyboardDown":true,"keyCode":75},{"time":72499.92750000028,"note":77,"velocity":64,"segmentId":1,"keyCode":190},{"time":72857.07000000028,"note":84,"velocity":80,"segmentId":1,"isKeyboardDown":true,"keyCode":8},{"time":72857.07000000028,"note":64,"velocity":64,"segmentId":2,"keyCode":71},{"time":72857.07000000028,"note":60,"velocity":80,"segmentId":2,"isKeyboardDown":true,"keyCode":53},{"time":72857.07000000028,"note":91,"velocity":64,"segmentId":4,"keyCode":75},{"time":72857.07000000028,"note":84,"velocity":80,"segmentId":4,"isKeyboardDown":true,"keyCode":8},{"time":72976.11750000028,"note":84,"velocity":64,"segmentId":1,"keyCode":8},{"time":73333.26000000029,"note":88,"velocity":80,"segmentId":1,"isKeyboardDown":true,"keyCode":189},{"time":73333.26000000029,"note":60,"velocity":64,"segmentId":2,"keyCode":53},{"time":73333.26000000029,"note":59,"velocity":80,"segmentId":2,"isKeyboardDown":true,"keyCode":52},{"time":73333.26000000029,"note":84,"velocity":64,"segmentId":4,"keyCode":8},{"time":73333.26000000029,"note":83,"velocity":80,"segmentId":4,"isKeyboardDown":true,"keyCode":187},{"time":73452.30750000029,"note":88,"velocity":64,"segmentId":1,"keyCode":189},{"time":73809.45000000029,"note":83,"velocity":80,"segmentId":1,"isKeyboardDown":true,"keyCode":187},{"time":73809.45000000029,"note":59,"velocity":64,"segmentId":2,"keyCode":52},{"time":73809.45000000029,"note":64,"velocity":80,"segmentId":2,"isKeyboardDown":true,"keyCode":71},{"time":73809.45000000029,"note":83,"velocity":64,"segmentId":4,"keyCode":187},{"time":73809.45000000029,"note":93,"velocity":80,"segmentId":4,"isKeyboardDown":true,"keyCode":55},{"time":73928.49750000029,"note":83,"velocity":64,"segmentId":1,"keyCode":187},{"time":74285.64000000029,"note":77,"velocity":80,"segmentId":1,"isKeyboardDown":true,"keyCode":190},{"time":74285.64000000029,"note":64,"velocity":64,"segmentId":2,"keyCode":71},{"time":74285.64000000029,"note":53,"velocity":80,"segmentId":2,"isKeyboardDown":true,"keyCode":90},{"time":74285.64000000029,"note":57,"velocity":80,"segmentId":3,"isKeyboardDown":true,"keyCode":69},{"time":74285.64000000029,"note":93,"velocity":64,"segmentId":4,"isEnd":true,"keyCode":55},{"time":74404.68750000029,"note":77,"velocity":64,"segmentId":1,"keyCode":190},{"time":74761.8300000003,"note":84,"velocity":80,"segmentId":1,"isKeyboardDown":true,"keyCode":8},{"time":74761.8300000003,"note":57,"velocity":64,"segmentId":3,"keyCode":69},{"time":74761.8300000003,"note":53,"velocity":80,"segmentId":3,"isKeyboardDown":true,"keyCode":90},{"time":74880.8775000003,"note":84,"velocity":64,"segmentId":1,"keyCode":8},{"time":75238.0200000003,"note":88,"velocity":80,"segmentId":1,"isKeyboardDown":true,"keyCode":189},{"time":75238.0200000003,"note":53,"velocity":64,"segmentId":2,"keyCode":90},{"time":75238.0200000003,"note":53,"velocity":80,"segmentId":2,"isKeyboardDown":true,"keyCode":90},{"time":75238.0200000003,"note":53,"velocity":64,"segmentId":3,"keyCode":90},{"time":75238.0200000003,"note":52,"velocity":80,"segmentId":3,"isKeyboardDown":true,"keyCode":65},{"time":75357.0675000003,"note":88,"velocity":64,"segmentId":1,"keyCode":189},{"time":75714.2100000003,"note":83,"velocity":80,"segmentId":1,"isKeyboardDown":true,"keyCode":187},{"time":75714.2100000003,"note":52,"velocity":64,"segmentId":3,"keyCode":65},{"time":75714.2100000003,"note":57,"velocity":80,"segmentId":3,"isKeyboardDown":true,"keyCode":69},{"time":75833.2575000003,"note":83,"velocity":64,"segmentId":1,"keyCode":187},{"time":76190.4000000003,"note":77,"velocity":80,"segmentId":1,"isKeyboardDown":true,"keyCode":190},{"time":76190.4000000003,"note":53,"velocity":64,"segmentId":2,"isEnd":true,"keyCode":90},{"time":76190.4000000003,"note":57,"velocity":64,"segmentId":3,"keyCode":69},{"time":76190.4000000003,"note":57,"velocity":80,"segmentId":3,"isKeyboardDown":true,"keyCode":69},{"time":76309.4475000003,"note":77,"velocity":64,"segmentId":1,"keyCode":190},{"time":76666.5900000003,"note":84,"velocity":80,"segmentId":1,"isKeyboardDown":true,"keyCode":8},{"time":76785.6375000003,"note":84,"velocity":64,"segmentId":1,"keyCode":8},{"time":77142.7800000003,"note":88,"velocity":80,"segmentId":1,"isKeyboardDown":true,"keyCode":189},{"time":77261.8275000003,"note":88,"velocity":64,"segmentId":1,"keyCode":189},{"time":77618.9700000003,"note":83,"velocity":80,"segmentId":1,"isKeyboardDown":true,"keyCode":187},{"time":77738.01750000031,"note":83,"velocity":64,"segmentId":1,"keyCode":187},{"time":78095.16000000031,"note":77,"velocity":80,"segmentId":1,"isKeyboardDown":true,"keyCode":190},{"time":78095.16000000031,"note":57,"velocity":64,"segmentId":3,"keyCode":69},{"time":78095.16000000031,"note":55,"velocity":80,"segmentId":3,"isKeyboardDown":true,"keyCode":83},{"time":78214.20750000031,"note":77,"velocity":64,"segmentId":1,"keyCode":190},{"time":78571.35000000031,"note":84,"velocity":80,"segmentId":1,"isKeyboardDown":true,"keyCode":8},{"time":78690.39750000031,"note":84,"velocity":64,"segmentId":1,"keyCode":8},{"time":79047.54000000031,"note":88,"velocity":80,"segmentId":1,"isKeyboardDown":true,"keyCode":189},{"time":79166.58750000031,"note":88,"velocity":64,"segmentId":1,"keyCode":189},{"time":79523.73000000032,"note":83,"velocity":80,"segmentId":1,"isKeyboardDown":true,"keyCode":187},{"time":79642.77750000032,"note":83,"velocity":64,"segmentId":1,"keyCode":187},{"time":79999.92000000032,"note":77,"velocity":80,"segmentId":1,"isKeyboardDown":true,"keyCode":190},{"time":79999.92000000032,"note":55,"velocity":64,"segmentId":3,"keyCode":83},{"time":79999.92000000032,"note":53,"velocity":80,"segmentId":3,"isKeyboardDown":true,"keyCode":90},{"time":80118.96750000032,"note":77,"velocity":64,"segmentId":1,"keyCode":190},{"time":80476.11000000032,"note":84,"velocity":80,"segmentId":1,"isKeyboardDown":true,"keyCode":8},{"time":80595.15750000032,"note":84,"velocity":64,"segmentId":1,"keyCode":8},{"time":80952.30000000032,"note":88,"velocity":80,"segmentId":1,"isKeyboardDown":true,"keyCode":189},{"time":81071.34750000032,"note":88,"velocity":64,"segmentId":1,"keyCode":189},{"time":81428.49000000033,"note":83,"velocity":80,"segmentId":1,"isKeyboardDown":true,"keyCode":187},{"time":81547.53750000033,"note":83,"velocity":64,"segmentId":1,"keyCode":187},{"time":81904.68000000033,"note":77,"velocity":80,"segmentId":1,"isKeyboardDown":true,"keyCode":190},{"time":81904.68000000033,"note":53,"velocity":64,"segmentId":3,"keyCode":90},{"time":81904.68000000033,"note":57,"velocity":80,"segmentId":3,"isKeyboardDown":true,"keyCode":69},{"time":82023.72750000033,"note":77,"velocity":64,"segmentId":1,"keyCode":190},{"time":82380.87000000033,"note":84,"velocity":80,"segmentId":1,"isKeyboardDown":true,"keyCode":8},{"time":82380.87000000033,"note":57,"velocity":64,"segmentId":3,"keyCode":69},{"time":82380.87000000033,"note":53,"velocity":80,"segmentId":3,"isKeyboardDown":true,"keyCode":90},{"time":82499.91750000033,"note":84,"velocity":64,"segmentId":1,"keyCode":8},{"time":82857.06000000033,"note":88,"velocity":80,"segmentId":1,"isKeyboardDown":true,"keyCode":189},{"time":82857.06000000033,"note":53,"velocity":64,"segmentId":3,"keyCode":90},{"time":82857.06000000033,"note":52,"velocity":80,"segmentId":3,"isKeyboardDown":true,"keyCode":65},{"time":82976.10750000033,"note":88,"velocity":64,"segmentId":1,"keyCode":189},{"time":83333.25000000033,"note":83,"velocity":80,"segmentId":1,"isKeyboardDown":true,"keyCode":187},{"time":83333.25000000033,"note":52,"velocity":64,"segmentId":3,"keyCode":65},{"time":83333.25000000033,"note":57,"velocity":80,"segmentId":3,"isKeyboardDown":true,"keyCode":69},{"time":83452.29750000034,"note":83,"velocity":64,"segmentId":1,"isEnd":true,"keyCode":187},{"time":83809.44000000034,"note":57,"velocity":64,"segmentId":3,"isEnd":true,"keyCode":69}],"segmentIds":[{"segmentId":"4","averageNote":86.41666666666667},{"segmentId":"1","averageNote":83},{"segmentId":"2","averageNote":59.25},{"segmentId":"3","averageNote":54.84375}],"segments":{"1":{"notes":[{"time":0,"note":77,"velocity":80,"segmentId":1,"isKeyboardDown":true,"isStart":true,"keyCode":190},{"time":119.04750000000001,"note":77,"velocity":64,"segmentId":1,"keyCode":190},{"time":476.19000000000005,"note":84,"velocity":80,"segmentId":1,"isKeyboardDown":true,"keyCode":8},{"time":595.2375000000001,"note":84,"velocity":64,"segmentId":1,"keyCode":8},{"time":952.3800000000001,"note":88,"velocity":80,"segmentId":1,"isKeyboardDown":true,"keyCode":189},{"time":1071.4275000000002,"note":88,"velocity":64,"segmentId":1,"keyCode":189},{"time":1428.5700000000002,"note":83,"velocity":80,"segmentId":1,"isKeyboardDown":true,"keyCode":187},{"time":1547.6175000000003,"note":83,"velocity":64,"segmentId":1,"keyCode":187},{"time":1904.7600000000002,"note":77,"velocity":80,"segmentId":1,"isKeyboardDown":true,"keyCode":190},{"time":2023.8075000000003,"note":77,"velocity":64,"segmentId":1,"keyCode":190},{"time":2380.9500000000003,"note":84,"velocity":80,"segmentId":1,"isKeyboardDown":true,"keyCode":8},{"time":2499.9975000000004,"note":84,"velocity":64,"segmentId":1,"keyCode":8},{"time":2857.1400000000003,"note":88,"velocity":80,"segmentId":1,"isKeyboardDown":true,"keyCode":189},{"time":2976.1875000000005,"note":88,"velocity":64,"segmentId":1,"keyCode":189},{"time":3333.3300000000004,"note":83,"velocity":80,"segmentId":1,"isKeyboardDown":true,"keyCode":187},{"time":3452.3775000000005,"note":83,"velocity":64,"segmentId":1,"keyCode":187},{"time":3809.5200000000004,"note":77,"velocity":80,"segmentId":1,"isKeyboardDown":true,"keyCode":190},{"time":3928.5675000000006,"note":77,"velocity":64,"segmentId":1,"keyCode":190},{"time":4285.710000000001,"note":84,"velocity":80,"segmentId":1,"isKeyboardDown":true,"keyCode":8},{"time":4404.757500000001,"note":84,"velocity":64,"segmentId":1,"keyCode":8},{"time":4761.900000000001,"note":88,"velocity":80,"segmentId":1,"isKeyboardDown":true,"keyCode":189},{"time":4880.9475,"note":88,"velocity":64,"segmentId":1,"keyCode":189},{"time":5238.09,"note":83,"velocity":80,"segmentId":1,"isKeyboardDown":true,"keyCode":187},{"time":5357.1375,"note":83,"velocity":64,"segmentId":1,"keyCode":187},{"time":5714.28,"note":77,"velocity":80,"segmentId":1,"isKeyboardDown":true,"keyCode":190},{"time":5833.327499999999,"note":77,"velocity":64,"segmentId":1,"keyCode":190},{"time":6190.469999999999,"note":84,"velocity":80,"segmentId":1,"isKeyboardDown":true,"keyCode":8},{"time":6309.517499999999,"note":84,"velocity":64,"segmentId":1,"keyCode":8},{"time":6666.659999999999,"note":88,"velocity":80,"segmentId":1,"isKeyboardDown":true,"keyCode":189},{"time":6785.707499999999,"note":88,"velocity":64,"segmentId":1,"keyCode":189},{"time":7142.8499999999985,"note":83,"velocity":80,"segmentId":1,"isKeyboardDown":true,"keyCode":187},{"time":7261.897499999998,"note":83,"velocity":64,"segmentId":1,"keyCode":187},{"time":7619.039999999998,"note":77,"velocity":80,"segmentId":1,"isKeyboardDown":true,"keyCode":190},{"time":7738.087499999998,"note":77,"velocity":64,"segmentId":1,"keyCode":190},{"time":8095.229999999998,"note":84,"velocity":80,"segmentId":1,"isKeyboardDown":true,"keyCode":8},{"time":8214.277499999998,"note":84,"velocity":64,"segmentId":1,"keyCode":8},{"time":8571.419999999998,"note":88,"velocity":80,"segmentId":1,"isKeyboardDown":true,"keyCode":189},{"time":8690.467499999999,"note":88,"velocity":64,"segmentId":1,"keyCode":189},{"time":9047.609999999999,"note":83,"velocity":80,"segmentId":1,"isKeyboardDown":true,"keyCode":187},{"time":9166.6575,"note":83,"velocity":64,"segmentId":1,"keyCode":187},{"time":9523.8,"note":77,"velocity":80,"segmentId":1,"isKeyboardDown":true,"keyCode":190},{"time":9642.8475,"note":77,"velocity":64,"segmentId":1,"keyCode":190},{"time":9999.99,"note":84,"velocity":80,"segmentId":1,"isKeyboardDown":true,"keyCode":8},{"time":10119.0375,"note":84,"velocity":64,"segmentId":1,"keyCode":8},{"time":10476.18,"note":88,"velocity":80,"segmentId":1,"isKeyboardDown":true,"keyCode":189},{"time":10595.2275,"note":88,"velocity":64,"segmentId":1,"keyCode":189},{"time":10952.37,"note":83,"velocity":80,"segmentId":1,"isKeyboardDown":true,"keyCode":187},{"time":11071.417500000001,"note":83,"velocity":64,"segmentId":1,"keyCode":187},{"time":11428.560000000001,"note":77,"velocity":80,"segmentId":1,"isKeyboardDown":true,"keyCode":190},{"time":11547.607500000002,"note":77,"velocity":64,"segmentId":1,"keyCode":190},{"time":11904.750000000002,"note":84,"velocity":80,"segmentId":1,"isKeyboardDown":true,"keyCode":8},{"time":12023.797500000002,"note":84,"velocity":64,"segmentId":1,"keyCode":8},{"time":12380.940000000002,"note":88,"velocity":80,"segmentId":1,"isKeyboardDown":true,"keyCode":189},{"time":12499.987500000003,"note":88,"velocity":64,"segmentId":1,"keyCode":189},{"time":12857.130000000003,"note":83,"velocity":80,"segmentId":1,"isKeyboardDown":true,"keyCode":187},{"time":12976.177500000003,"note":83,"velocity":64,"segmentId":1,"keyCode":187},{"time":13333.320000000003,"note":77,"velocity":80,"segmentId":1,"isKeyboardDown":true,"keyCode":190},{"time":13452.367500000004,"note":77,"velocity":64,"segmentId":1,"keyCode":190},{"time":13809.510000000004,"note":84,"velocity":80,"segmentId":1,"isKeyboardDown":true,"keyCode":8},{"time":13928.557500000004,"note":84,"velocity":64,"segmentId":1,"keyCode":8},{"time":14285.700000000004,"note":88,"velocity":80,"segmentId":1,"isKeyboardDown":true,"keyCode":189},{"time":14404.747500000005,"note":88,"velocity":64,"segmentId":1,"keyCode":189},{"time":14761.890000000005,"note":83,"velocity":80,"segmentId":1,"isKeyboardDown":true,"keyCode":187},{"time":14880.937500000005,"note":83,"velocity":64,"segmentId":1,"keyCode":187},{"time":15238.080000000005,"note":77,"velocity":80,"segmentId":1,"isKeyboardDown":true,"keyCode":190},{"time":15357.127500000006,"note":77,"velocity":64,"segmentId":1,"keyCode":190},{"time":15714.270000000006,"note":84,"velocity":80,"segmentId":1,"isKeyboardDown":true,"keyCode":8},{"time":15833.317500000006,"note":84,"velocity":64,"segmentId":1,"keyCode":8},{"time":16190.460000000006,"note":88,"velocity":80,"segmentId":1,"isKeyboardDown":true,"keyCode":189},{"time":16309.507500000007,"note":88,"velocity":64,"segmentId":1,"keyCode":189},{"time":16666.65000000001,"note":83,"velocity":80,"segmentId":1,"isKeyboardDown":true,"keyCode":187},{"time":16785.69750000001,"note":83,"velocity":64,"segmentId":1,"keyCode":187},{"time":17142.84000000001,"note":77,"velocity":80,"segmentId":1,"isKeyboardDown":true,"keyCode":190},{"time":17261.88750000001,"note":77,"velocity":64,"segmentId":1,"keyCode":190},{"time":17619.030000000013,"note":84,"velocity":80,"segmentId":1,"isKeyboardDown":true,"keyCode":8},{"time":17738.077500000014,"note":84,"velocity":64,"segmentId":1,"keyCode":8},{"time":18095.220000000016,"note":88,"velocity":80,"segmentId":1,"isKeyboardDown":true,"keyCode":189},{"time":18214.267500000016,"note":88,"velocity":64,"segmentId":1,"keyCode":189},{"time":18571.410000000018,"note":83,"velocity":80,"segmentId":1,"isKeyboardDown":true,"keyCode":187},{"time":18690.45750000002,"note":83,"velocity":64,"segmentId":1,"keyCode":187},{"time":19047.60000000002,"note":77,"velocity":80,"segmentId":1,"isKeyboardDown":true,"keyCode":190},{"time":19166.64750000002,"note":77,"velocity":64,"segmentId":1,"keyCode":190},{"time":19523.790000000023,"note":84,"velocity":80,"segmentId":1,"isKeyboardDown":true,"keyCode":8},{"time":19642.837500000023,"note":84,"velocity":64,"segmentId":1,"keyCode":8},{"time":19999.980000000025,"note":88,"velocity":80,"segmentId":1,"isKeyboardDown":true,"keyCode":189},{"time":20119.027500000026,"note":88,"velocity":64,"segmentId":1,"keyCode":189},{"time":20476.170000000027,"note":83,"velocity":80,"segmentId":1,"isKeyboardDown":true,"keyCode":187},{"time":20595.217500000028,"note":83,"velocity":64,"segmentId":1,"keyCode":187},{"time":20952.36000000003,"note":77,"velocity":80,"segmentId":1,"isKeyboardDown":true,"keyCode":190},{"time":21071.40750000003,"note":77,"velocity":64,"segmentId":1,"keyCode":190},{"time":21428.550000000032,"note":84,"velocity":80,"segmentId":1,"isKeyboardDown":true,"keyCode":8},{"time":21547.597500000033,"note":84,"velocity":64,"segmentId":1,"keyCode":8},{"time":21904.740000000034,"note":88,"velocity":80,"segmentId":1,"isKeyboardDown":true,"keyCode":189},{"time":22023.787500000035,"note":88,"velocity":64,"segmentId":1,"keyCode":189},{"time":22380.930000000037,"note":83,"velocity":80,"segmentId":1,"isKeyboardDown":true,"keyCode":187},{"time":22499.977500000037,"note":83,"velocity":64,"segmentId":1,"keyCode":187},{"time":22857.12000000004,"note":77,"velocity":80,"segmentId":1,"isKeyboardDown":true,"keyCode":190},{"time":22976.16750000004,"note":77,"velocity":64,"segmentId":1,"keyCode":190},{"time":23333.31000000004,"note":84,"velocity":80,"segmentId":1,"isKeyboardDown":true,"keyCode":8},{"time":23452.357500000042,"note":84,"velocity":64,"segmentId":1,"keyCode":8},{"time":23809.500000000044,"note":88,"velocity":80,"segmentId":1,"isKeyboardDown":true,"keyCode":189},{"time":23928.547500000044,"note":88,"velocity":64,"segmentId":1,"keyCode":189},{"time":24285.690000000046,"note":83,"velocity":80,"segmentId":1,"isKeyboardDown":true,"keyCode":187},{"time":24404.737500000047,"note":83,"velocity":64,"segmentId":1,"keyCode":187},{"time":24761.88000000005,"note":77,"velocity":80,"segmentId":1,"isKeyboardDown":true,"keyCode":190},{"time":24880.92750000005,"note":77,"velocity":64,"segmentId":1,"keyCode":190},{"time":25238.07000000005,"note":84,"velocity":80,"segmentId":1,"isKeyboardDown":true,"keyCode":8},{"time":25357.11750000005,"note":84,"velocity":64,"segmentId":1,"keyCode":8},{"time":25714.260000000053,"note":88,"velocity":80,"segmentId":1,"isKeyboardDown":true,"keyCode":189},{"time":25833.307500000054,"note":88,"velocity":64,"segmentId":1,"keyCode":189},{"time":26190.450000000055,"note":83,"velocity":80,"segmentId":1,"isKeyboardDown":true,"keyCode":187},{"time":26309.497500000056,"note":83,"velocity":64,"segmentId":1,"keyCode":187},{"time":26666.640000000058,"note":77,"velocity":80,"segmentId":1,"isKeyboardDown":true,"keyCode":190},{"time":26785.68750000006,"note":77,"velocity":64,"segmentId":1,"keyCode":190},{"time":27142.83000000006,"note":84,"velocity":80,"segmentId":1,"isKeyboardDown":true,"keyCode":8},{"time":27261.87750000006,"note":84,"velocity":64,"segmentId":1,"keyCode":8},{"time":27619.020000000062,"note":88,"velocity":80,"segmentId":1,"isKeyboardDown":true,"keyCode":189},{"time":27738.067500000063,"note":88,"velocity":64,"segmentId":1,"keyCode":189},{"time":28095.210000000065,"note":83,"velocity":80,"segmentId":1,"isKeyboardDown":true,"keyCode":187},{"time":28214.257500000065,"note":83,"velocity":64,"segmentId":1,"keyCode":187},{"time":28571.400000000067,"note":77,"velocity":80,"segmentId":1,"isKeyboardDown":true,"keyCode":190},{"time":28690.447500000068,"note":77,"velocity":64,"segmentId":1,"keyCode":190},{"time":29047.59000000007,"note":84,"velocity":80,"segmentId":1,"isKeyboardDown":true,"keyCode":8},{"time":29166.63750000007,"note":84,"velocity":64,"segmentId":1,"keyCode":8},{"time":29523.78000000007,"note":88,"velocity":80,"segmentId":1,"isKeyboardDown":true,"keyCode":189},{"time":29642.827500000072,"note":88,"velocity":64,"segmentId":1,"keyCode":189},{"time":29999.970000000074,"note":83,"velocity":80,"segmentId":1,"isKeyboardDown":true,"keyCode":187},{"time":30119.017500000075,"note":83,"velocity":64,"segmentId":1,"keyCode":187},{"time":30476.160000000076,"note":77,"velocity":80,"segmentId":1,"isKeyboardDown":true,"keyCode":190},{"time":30595.207500000077,"note":77,"velocity":64,"segmentId":1,"keyCode":190},{"time":30952.35000000008,"note":84,"velocity":80,"segmentId":1,"isKeyboardDown":true,"keyCode":8},{"time":31071.39750000008,"note":84,"velocity":64,"segmentId":1,"keyCode":8},{"time":31428.54000000008,"note":88,"velocity":80,"segmentId":1,"isKeyboardDown":true,"keyCode":189},{"time":31547.58750000008,"note":88,"velocity":64,"segmentId":1,"keyCode":189},{"time":31904.730000000083,"note":83,"velocity":80,"segmentId":1,"isKeyboardDown":true,"keyCode":187},{"time":32023.777500000084,"note":83,"velocity":64,"segmentId":1,"keyCode":187},{"time":32380.920000000086,"note":77,"velocity":80,"segmentId":1,"isKeyboardDown":true,"keyCode":190},{"time":32499.967500000086,"note":77,"velocity":64,"segmentId":1,"keyCode":190},{"time":32857.11000000009,"note":84,"velocity":80,"segmentId":1,"isKeyboardDown":true,"keyCode":8},{"time":32976.15750000009,"note":84,"velocity":64,"segmentId":1,"keyCode":8},{"time":33333.30000000009,"note":88,"velocity":80,"segmentId":1,"isKeyboardDown":true,"keyCode":189},{"time":33452.34750000009,"note":88,"velocity":64,"segmentId":1,"keyCode":189},{"time":33809.49000000009,"note":83,"velocity":80,"segmentId":1,"isKeyboardDown":true,"keyCode":187},{"time":33928.53750000009,"note":83,"velocity":64,"segmentId":1,"keyCode":187},{"time":34285.680000000095,"note":77,"velocity":80,"segmentId":1,"isKeyboardDown":true,"keyCode":190},{"time":34404.727500000095,"note":77,"velocity":64,"segmentId":1,"keyCode":190},{"time":34761.8700000001,"note":84,"velocity":80,"segmentId":1,"isKeyboardDown":true,"keyCode":8},{"time":34880.9175000001,"note":84,"velocity":64,"segmentId":1,"keyCode":8},{"time":35238.0600000001,"note":88,"velocity":80,"segmentId":1,"isKeyboardDown":true,"keyCode":189},{"time":35357.1075000001,"note":88,"velocity":64,"segmentId":1,"keyCode":189},{"time":35714.2500000001,"note":83,"velocity":80,"segmentId":1,"isKeyboardDown":true,"keyCode":187},{"time":35833.2975000001,"note":83,"velocity":64,"segmentId":1,"keyCode":187},{"time":36190.440000000104,"note":77,"velocity":80,"segmentId":1,"isKeyboardDown":true,"keyCode":190},{"time":36309.487500000105,"note":77,"velocity":64,"segmentId":1,"keyCode":190},{"time":36666.63000000011,"note":84,"velocity":80,"segmentId":1,"isKeyboardDown":true,"keyCode":8},{"time":36785.67750000011,"note":84,"velocity":64,"segmentId":1,"keyCode":8},{"time":37142.82000000011,"note":88,"velocity":80,"segmentId":1,"isKeyboardDown":true,"keyCode":189},{"time":37261.86750000011,"note":88,"velocity":64,"segmentId":1,"keyCode":189},{"time":37619.01000000011,"note":83,"velocity":80,"segmentId":1,"isKeyboardDown":true,"keyCode":187},{"time":37738.05750000011,"note":83,"velocity":64,"segmentId":1,"keyCode":187},{"time":38095.20000000011,"note":77,"velocity":80,"segmentId":1,"isKeyboardDown":true,"keyCode":190},{"time":38214.247500000114,"note":77,"velocity":64,"segmentId":1,"keyCode":190},{"time":38571.390000000116,"note":84,"velocity":80,"segmentId":1,"isKeyboardDown":true,"keyCode":8},{"time":38690.43750000012,"note":84,"velocity":64,"segmentId":1,"keyCode":8},{"time":39047.58000000012,"note":88,"velocity":80,"segmentId":1,"isKeyboardDown":true,"keyCode":189},{"time":39166.62750000012,"note":88,"velocity":64,"segmentId":1,"keyCode":189},{"time":39523.77000000012,"note":83,"velocity":80,"segmentId":1,"isKeyboardDown":true,"keyCode":187},{"time":39642.81750000012,"note":83,"velocity":64,"segmentId":1,"keyCode":187},{"time":39999.96000000012,"note":77,"velocity":80,"segmentId":1,"isKeyboardDown":true,"keyCode":190},{"time":40119.00750000012,"note":77,"velocity":64,"segmentId":1,"keyCode":190},{"time":40476.150000000125,"note":84,"velocity":80,"segmentId":1,"isKeyboardDown":true,"keyCode":8},{"time":40595.197500000126,"note":84,"velocity":64,"segmentId":1,"keyCode":8},{"time":40952.34000000013,"note":88,"velocity":80,"segmentId":1,"isKeyboardDown":true,"keyCode":189},{"time":41071.38750000013,"note":88,"velocity":64,"segmentId":1,"keyCode":189},{"time":41428.53000000013,"note":83,"velocity":80,"segmentId":1,"isKeyboardDown":true,"keyCode":187},{"time":41547.57750000013,"note":83,"velocity":64,"segmentId":1,"keyCode":187},{"time":41904.72000000013,"note":77,"velocity":80,"segmentId":1,"isKeyboardDown":true,"keyCode":190},{"time":42023.76750000013,"note":77,"velocity":64,"segmentId":1,"keyCode":190},{"time":42380.910000000134,"note":84,"velocity":80,"segmentId":1,"isKeyboardDown":true,"keyCode":8},{"time":42499.957500000135,"note":84,"velocity":64,"segmentId":1,"keyCode":8},{"time":42857.10000000014,"note":88,"velocity":80,"segmentId":1,"isKeyboardDown":true,"keyCode":189},{"time":42976.14750000014,"note":88,"velocity":64,"segmentId":1,"keyCode":189},{"time":43333.29000000014,"note":83,"velocity":80,"segmentId":1,"isKeyboardDown":true,"keyCode":187},{"time":43452.33750000014,"note":83,"velocity":64,"segmentId":1,"keyCode":187},{"time":43809.48000000014,"note":77,"velocity":80,"segmentId":1,"isKeyboardDown":true,"keyCode":190},{"time":43928.52750000014,"note":77,"velocity":64,"segmentId":1,"keyCode":190},{"time":44285.670000000144,"note":84,"velocity":80,"segmentId":1,"isKeyboardDown":true,"keyCode":8},{"time":44404.717500000144,"note":84,"velocity":64,"segmentId":1,"keyCode":8},{"time":44761.860000000146,"note":88,"velocity":80,"segmentId":1,"isKeyboardDown":true,"keyCode":189},{"time":44880.90750000015,"note":88,"velocity":64,"segmentId":1,"keyCode":189},{"time":45238.05000000015,"note":83,"velocity":80,"segmentId":1,"isKeyboardDown":true,"keyCode":187},{"time":45357.09750000015,"note":83,"velocity":64,"segmentId":1,"keyCode":187},{"time":45714.24000000015,"note":77,"velocity":80,"segmentId":1,"isKeyboardDown":true,"keyCode":190},{"time":45833.28750000015,"note":77,"velocity":64,"segmentId":1,"keyCode":190},{"time":46190.43000000015,"note":84,"velocity":80,"segmentId":1,"isKeyboardDown":true,"keyCode":8},{"time":46309.477500000154,"note":84,"velocity":64,"segmentId":1,"keyCode":8},{"time":46666.620000000155,"note":88,"velocity":80,"segmentId":1,"isKeyboardDown":true,"keyCode":189},{"time":46785.667500000156,"note":88,"velocity":64,"segmentId":1,"keyCode":189},{"time":47142.81000000016,"note":83,"velocity":80,"segmentId":1,"isKeyboardDown":true,"keyCode":187},{"time":47261.85750000016,"note":83,"velocity":64,"segmentId":1,"keyCode":187},{"time":47619.00000000016,"note":77,"velocity":80,"segmentId":1,"isKeyboardDown":true,"keyCode":190},{"time":47738.04750000016,"note":77,"velocity":64,"segmentId":1,"keyCode":190},{"time":48095.19000000016,"note":84,"velocity":80,"segmentId":1,"isKeyboardDown":true,"keyCode":8},{"time":48214.23750000016,"note":84,"velocity":64,"segmentId":1,"keyCode":8},{"time":48571.380000000165,"note":88,"velocity":80,"segmentId":1,"isKeyboardDown":true,"keyCode":189},{"time":48690.427500000165,"note":88,"velocity":64,"segmentId":1,"keyCode":189},{"time":49047.57000000017,"note":83,"velocity":80,"segmentId":1,"isKeyboardDown":true,"keyCode":187},{"time":49166.61750000017,"note":83,"velocity":64,"segmentId":1,"keyCode":187},{"time":49523.76000000017,"note":77,"velocity":80,"segmentId":1,"isKeyboardDown":true,"keyCode":190},{"time":49642.80750000017,"note":77,"velocity":64,"segmentId":1,"keyCode":190},{"time":49999.95000000017,"note":84,"velocity":80,"segmentId":1,"isKeyboardDown":true,"keyCode":8},{"time":50118.99750000017,"note":84,"velocity":64,"segmentId":1,"keyCode":8},{"time":50476.140000000174,"note":88,"velocity":80,"segmentId":1,"isKeyboardDown":true,"keyCode":189},{"time":50595.187500000175,"note":88,"velocity":64,"segmentId":1,"keyCode":189},{"time":50952.33000000018,"note":83,"velocity":80,"segmentId":1,"isKeyboardDown":true,"keyCode":187},{"time":51071.37750000018,"note":83,"velocity":64,"segmentId":1,"keyCode":187},{"time":51428.52000000018,"note":77,"velocity":80,"segmentId":1,"isKeyboardDown":true,"keyCode":190},{"time":51547.56750000018,"note":77,"velocity":64,"segmentId":1,"keyCode":190},{"time":51904.71000000018,"note":84,"velocity":80,"segmentId":1,"isKeyboardDown":true,"keyCode":8},{"time":52023.75750000018,"note":84,"velocity":64,"segmentId":1,"keyCode":8},{"time":52380.90000000018,"note":88,"velocity":80,"segmentId":1,"isKeyboardDown":true,"keyCode":189},{"time":52499.947500000184,"note":88,"velocity":64,"segmentId":1,"keyCode":189},{"time":52857.090000000186,"note":83,"velocity":80,"segmentId":1,"isKeyboardDown":true,"keyCode":187},{"time":52976.137500000186,"note":83,"velocity":64,"segmentId":1,"keyCode":187},{"time":53333.28000000019,"note":77,"velocity":80,"segmentId":1,"isKeyboardDown":true,"keyCode":190},{"time":53452.32750000019,"note":77,"velocity":64,"segmentId":1,"keyCode":190},{"time":53809.47000000019,"note":84,"velocity":80,"segmentId":1,"isKeyboardDown":true,"keyCode":8},{"time":53928.51750000019,"note":84,"velocity":64,"segmentId":1,"keyCode":8},{"time":54285.66000000019,"note":88,"velocity":80,"segmentId":1,"isKeyboardDown":true,"keyCode":189},{"time":54404.70750000019,"note":88,"velocity":64,"segmentId":1,"keyCode":189},{"time":54761.850000000195,"note":83,"velocity":80,"segmentId":1,"isKeyboardDown":true,"keyCode":187},{"time":54880.897500000196,"note":83,"velocity":64,"segmentId":1,"keyCode":187},{"time":55238.0400000002,"note":77,"velocity":80,"segmentId":1,"isKeyboardDown":true,"keyCode":190},{"time":55357.0875000002,"note":77,"velocity":64,"segmentId":1,"keyCode":190},{"time":55714.2300000002,"note":84,"velocity":80,"segmentId":1,"isKeyboardDown":true,"keyCode":8},{"time":55833.2775000002,"note":84,"velocity":64,"segmentId":1,"keyCode":8},{"time":56190.4200000002,"note":88,"velocity":80,"segmentId":1,"isKeyboardDown":true,"keyCode":189},{"time":56309.4675000002,"note":88,"velocity":64,"segmentId":1,"keyCode":189},{"time":56666.610000000204,"note":83,"velocity":80,"segmentId":1,"isKeyboardDown":true,"keyCode":187},{"time":56785.657500000205,"note":83,"velocity":64,"segmentId":1,"keyCode":187},{"time":57142.80000000021,"note":77,"velocity":80,"segmentId":1,"isKeyboardDown":true,"keyCode":190},{"time":57261.84750000021,"note":77,"velocity":64,"segmentId":1,"keyCode":190},{"time":57618.99000000021,"note":84,"velocity":80,"segmentId":1,"isKeyboardDown":true,"keyCode":8},{"time":57738.03750000021,"note":84,"velocity":64,"segmentId":1,"keyCode":8},{"time":58095.18000000021,"note":88,"velocity":80,"segmentId":1,"isKeyboardDown":true,"keyCode":189},{"time":58214.22750000021,"note":88,"velocity":64,"segmentId":1,"keyCode":189},{"time":58571.37000000021,"note":83,"velocity":80,"segmentId":1,"isKeyboardDown":true,"keyCode":187},{"time":58690.417500000214,"note":83,"velocity":64,"segmentId":1,"keyCode":187},{"time":59047.560000000216,"note":77,"velocity":80,"segmentId":1,"isKeyboardDown":true,"keyCode":190},{"time":59166.60750000022,"note":77,"velocity":64,"segmentId":1,"keyCode":190},{"time":59523.75000000022,"note":84,"velocity":80,"segmentId":1,"isKeyboardDown":true,"keyCode":8},{"time":59642.79750000022,"note":84,"velocity":64,"segmentId":1,"keyCode":8},{"time":59999.94000000022,"note":88,"velocity":80,"segmentId":1,"isKeyboardDown":true,"keyCode":189},{"time":60118.98750000022,"note":88,"velocity":64,"segmentId":1,"keyCode":189},{"time":60476.13000000022,"note":83,"velocity":80,"segmentId":1,"isKeyboardDown":true,"keyCode":187},{"time":60595.17750000022,"note":83,"velocity":64,"segmentId":1,"keyCode":187},{"time":60952.320000000225,"note":77,"velocity":80,"segmentId":1,"isKeyboardDown":true,"keyCode":190},{"time":61071.367500000226,"note":77,"velocity":64,"segmentId":1,"keyCode":190},{"time":61428.51000000023,"note":84,"velocity":80,"segmentId":1,"isKeyboardDown":true,"keyCode":8},{"time":61547.55750000023,"note":84,"velocity":64,"segmentId":1,"keyCode":8},{"time":61904.70000000023,"note":88,"velocity":80,"segmentId":1,"isKeyboardDown":true,"keyCode":189},{"time":62023.74750000023,"note":88,"velocity":64,"segmentId":1,"keyCode":189},{"time":62380.89000000023,"note":83,"velocity":80,"segmentId":1,"isKeyboardDown":true,"keyCode":187},{"time":62499.93750000023,"note":83,"velocity":64,"segmentId":1,"keyCode":187},{"time":62857.080000000235,"note":77,"velocity":80,"segmentId":1,"isKeyboardDown":true,"keyCode":190},{"time":62976.127500000235,"note":77,"velocity":64,"segmentId":1,"keyCode":190},{"time":63333.27000000024,"note":84,"velocity":80,"segmentId":1,"isKeyboardDown":true,"keyCode":8},{"time":63452.31750000024,"note":84,"velocity":64,"segmentId":1,"keyCode":8},{"time":63809.46000000024,"note":88,"velocity":80,"segmentId":1,"isKeyboardDown":true,"keyCode":189},{"time":63928.50750000024,"note":88,"velocity":64,"segmentId":1,"keyCode":189},{"time":64285.65000000024,"note":83,"velocity":80,"segmentId":1,"isKeyboardDown":true,"keyCode":187},{"time":64404.69750000024,"note":83,"velocity":64,"segmentId":1,"keyCode":187},{"time":64761.840000000244,"note":77,"velocity":80,"segmentId":1,"isKeyboardDown":true,"keyCode":190},{"time":64880.887500000244,"note":77,"velocity":64,"segmentId":1,"keyCode":190},{"time":65238.030000000246,"note":84,"velocity":80,"segmentId":1,"isKeyboardDown":true,"keyCode":8},{"time":65357.07750000025,"note":84,"velocity":64,"segmentId":1,"keyCode":8},{"time":65714.22000000025,"note":88,"velocity":80,"segmentId":1,"isKeyboardDown":true,"keyCode":189},{"time":65833.26750000025,"note":88,"velocity":64,"segmentId":1,"keyCode":189},{"time":66190.41000000025,"note":83,"velocity":80,"segmentId":1,"isKeyboardDown":true,"keyCode":187},{"time":66309.45750000025,"note":83,"velocity":64,"segmentId":1,"keyCode":187},{"time":66666.60000000025,"note":77,"velocity":80,"segmentId":1,"isKeyboardDown":true,"keyCode":190},{"time":66785.64750000025,"note":77,"velocity":64,"segmentId":1,"keyCode":190},{"time":67142.79000000026,"note":84,"velocity":80,"segmentId":1,"isKeyboardDown":true,"keyCode":8},{"time":67261.83750000026,"note":84,"velocity":64,"segmentId":1,"keyCode":8},{"time":67618.98000000026,"note":88,"velocity":80,"segmentId":1,"isKeyboardDown":true,"keyCode":189},{"time":67738.02750000026,"note":88,"velocity":64,"segmentId":1,"keyCode":189},{"time":68095.17000000026,"note":83,"velocity":80,"segmentId":1,"isKeyboardDown":true,"keyCode":187},{"time":68214.21750000026,"note":83,"velocity":64,"segmentId":1,"keyCode":187},{"time":68571.36000000026,"note":77,"velocity":80,"segmentId":1,"isKeyboardDown":true,"keyCode":190},{"time":68690.40750000026,"note":77,"velocity":64,"segmentId":1,"keyCode":190},{"time":69047.55000000026,"note":84,"velocity":80,"segmentId":1,"isKeyboardDown":true,"keyCode":8},{"time":69166.59750000027,"note":84,"velocity":64,"segmentId":1,"keyCode":8},{"time":69523.74000000027,"note":88,"velocity":80,"segmentId":1,"isKeyboardDown":true,"keyCode":189},{"time":69642.78750000027,"note":88,"velocity":64,"segmentId":1,"keyCode":189},{"time":69999.93000000027,"note":83,"velocity":80,"segmentId":1,"isKeyboardDown":true,"keyCode":187},{"time":70118.97750000027,"note":83,"velocity":64,"segmentId":1,"keyCode":187},{"time":70476.12000000027,"note":77,"velocity":80,"segmentId":1,"isKeyboardDown":true,"keyCode":190},{"time":70595.16750000027,"note":77,"velocity":64,"segmentId":1,"keyCode":190},{"time":70952.31000000027,"note":84,"velocity":80,"segmentId":1,"isKeyboardDown":true,"keyCode":8},{"time":71071.35750000027,"note":84,"velocity":64,"segmentId":1,"keyCode":8},{"time":71428.50000000028,"note":88,"velocity":80,"segmentId":1,"isKeyboardDown":true,"keyCode":189},{"time":71547.54750000028,"note":88,"velocity":64,"segmentId":1,"keyCode":189},{"time":71904.69000000028,"note":83,"velocity":80,"segmentId":1,"isKeyboardDown":true,"keyCode":187},{"time":72023.73750000028,"note":83,"velocity":64,"segmentId":1,"keyCode":187},{"time":72380.88000000028,"note":77,"velocity":80,"segmentId":1,"isKeyboardDown":true,"keyCode":190},{"time":72499.92750000028,"note":77,"velocity":64,"segmentId":1,"keyCode":190},{"time":72857.07000000028,"note":84,"velocity":80,"segmentId":1,"isKeyboardDown":true,"keyCode":8},{"time":72976.11750000028,"note":84,"velocity":64,"segmentId":1,"keyCode":8},{"time":73333.26000000029,"note":88,"velocity":80,"segmentId":1,"isKeyboardDown":true,"keyCode":189},{"time":73452.30750000029,"note":88,"velocity":64,"segmentId":1,"keyCode":189},{"time":73809.45000000029,"note":83,"velocity":80,"segmentId":1,"isKeyboardDown":true,"keyCode":187},{"time":73928.49750000029,"note":83,"velocity":64,"segmentId":1,"keyCode":187},{"time":74285.64000000029,"note":77,"velocity":80,"segmentId":1,"isKeyboardDown":true,"keyCode":190},{"time":74404.68750000029,"note":77,"velocity":64,"segmentId":1,"keyCode":190},{"time":74761.8300000003,"note":84,"velocity":80,"segmentId":1,"isKeyboardDown":true,"keyCode":8},{"time":74880.8775000003,"note":84,"velocity":64,"segmentId":1,"keyCode":8},{"time":75238.0200000003,"note":88,"velocity":80,"segmentId":1,"isKeyboardDown":true,"keyCode":189},{"time":75357.0675000003,"note":88,"velocity":64,"segmentId":1,"keyCode":189},{"time":75714.2100000003,"note":83,"velocity":80,"segmentId":1,"isKeyboardDown":true,"keyCode":187},{"time":75833.2575000003,"note":83,"velocity":64,"segmentId":1,"keyCode":187},{"time":76190.4000000003,"note":77,"velocity":80,"segmentId":1,"isKeyboardDown":true,"keyCode":190},{"time":76309.4475000003,"note":77,"velocity":64,"segmentId":1,"keyCode":190},{"time":76666.5900000003,"note":84,"velocity":80,"segmentId":1,"isKeyboardDown":true,"keyCode":8},{"time":76785.6375000003,"note":84,"velocity":64,"segmentId":1,"keyCode":8},{"time":77142.7800000003,"note":88,"velocity":80,"segmentId":1,"isKeyboardDown":true,"keyCode":189},{"time":77261.8275000003,"note":88,"velocity":64,"segmentId":1,"keyCode":189},{"time":77618.9700000003,"note":83,"velocity":80,"segmentId":1,"isKeyboardDown":true,"keyCode":187},{"time":77738.01750000031,"note":83,"velocity":64,"segmentId":1,"keyCode":187},{"time":78095.16000000031,"note":77,"velocity":80,"segmentId":1,"isKeyboardDown":true,"keyCode":190},{"time":78214.20750000031,"note":77,"velocity":64,"segmentId":1,"keyCode":190},{"time":78571.35000000031,"note":84,"velocity":80,"segmentId":1,"isKeyboardDown":true,"keyCode":8},{"time":78690.39750000031,"note":84,"velocity":64,"segmentId":1,"keyCode":8},{"time":79047.54000000031,"note":88,"velocity":80,"segmentId":1,"isKeyboardDown":true,"keyCode":189},{"time":79166.58750000031,"note":88,"velocity":64,"segmentId":1,"keyCode":189},{"time":79523.73000000032,"note":83,"velocity":80,"segmentId":1,"isKeyboardDown":true,"keyCode":187},{"time":79642.77750000032,"note":83,"velocity":64,"segmentId":1,"keyCode":187},{"time":79999.92000000032,"note":77,"velocity":80,"segmentId":1,"isKeyboardDown":true,"keyCode":190},{"time":80118.96750000032,"note":77,"velocity":64,"segmentId":1,"keyCode":190},{"time":80476.11000000032,"note":84,"velocity":80,"segmentId":1,"isKeyboardDown":true,"keyCode":8},{"time":80595.15750000032,"note":84,"velocity":64,"segmentId":1,"keyCode":8},{"time":80952.30000000032,"note":88,"velocity":80,"segmentId":1,"isKeyboardDown":true,"keyCode":189},{"time":81071.34750000032,"note":88,"velocity":64,"segmentId":1,"keyCode":189},{"time":81428.49000000033,"note":83,"velocity":80,"segmentId":1,"isKeyboardDown":true,"keyCode":187},{"time":81547.53750000033,"note":83,"velocity":64,"segmentId":1,"keyCode":187},{"time":81904.68000000033,"note":77,"velocity":80,"segmentId":1,"isKeyboardDown":true,"keyCode":190},{"time":82023.72750000033,"note":77,"velocity":64,"segmentId":1,"keyCode":190},{"time":82380.87000000033,"note":84,"velocity":80,"segmentId":1,"isKeyboardDown":true,"keyCode":8},{"time":82499.91750000033,"note":84,"velocity":64,"segmentId":1,"keyCode":8},{"time":82857.06000000033,"note":88,"velocity":80,"segmentId":1,"isKeyboardDown":true,"keyCode":189},{"time":82976.10750000033,"note":88,"velocity":64,"segmentId":1,"keyCode":189},{"time":83333.25000000033,"note":83,"velocity":80,"segmentId":1,"isKeyboardDown":true,"keyCode":187},{"time":83452.29750000034,"note":83,"velocity":64,"segmentId":1,"isEnd":true,"keyCode":187}],"startIndex":0,"endIndex":686},"2":{"notes":[{"time":7619.039999999998,"note":60,"velocity":80,"segmentId":2,"isKeyboardDown":true,"isStart":true,"keyCode":53},{"time":8571.419999999998,"note":60,"velocity":64,"segmentId":2,"keyCode":53},{"time":8571.419999999998,"note":60,"velocity":80,"segmentId":2,"isKeyboardDown":true,"keyCode":53},{"time":9523.8,"note":60,"velocity":64,"segmentId":2,"keyCode":53},{"time":9523.8,"note":57,"velocity":80,"segmentId":2,"isKeyboardDown":true,"keyCode":69},{"time":10476.18,"note":57,"velocity":64,"segmentId":2,"keyCode":69},{"time":10476.18,"note":57,"velocity":80,"segmentId":2,"isKeyboardDown":true,"keyCode":69},{"time":11428.560000000001,"note":57,"velocity":64,"segmentId":2,"keyCode":69},{"time":11428.560000000001,"note":60,"velocity":80,"segmentId":2,"isKeyboardDown":true,"keyCode":53},{"time":11904.750000000002,"note":60,"velocity":64,"segmentId":2,"keyCode":53},{"time":11904.750000000002,"note":59,"velocity":80,"segmentId":2,"isKeyboardDown":true,"keyCode":52},{"time":12380.940000000002,"note":59,"velocity":64,"segmentId":2,"keyCode":52},{"time":12380.940000000002,"note":57,"velocity":80,"segmentId":2,"isKeyboardDown":true,"keyCode":69},{"time":12857.130000000003,"note":57,"velocity":64,"segmentId":2,"keyCode":69},{"time":12857.130000000003,"note":64,"velocity":80,"segmentId":2,"isKeyboardDown":true,"keyCode":71},{"time":13333.320000000003,"note":64,"velocity":64,"segmentId":2,"keyCode":71},{"time":13333.320000000003,"note":54,"velocity":80,"segmentId":2,"isKeyboardDown":true,"keyCode":88},{"time":14285.700000000004,"note":54,"velocity":64,"segmentId":2,"keyCode":88},{"time":14285.700000000004,"note":54,"velocity":80,"segmentId":2,"isKeyboardDown":true,"keyCode":88},{"time":15238.080000000005,"note":54,"velocity":64,"segmentId":2,"keyCode":88},{"time":15238.080000000005,"note":60,"velocity":80,"segmentId":2,"isKeyboardDown":true,"keyCode":53},{"time":16190.460000000006,"note":60,"velocity":64,"segmentId":2,"keyCode":53},{"time":16190.460000000006,"note":60,"velocity":80,"segmentId":2,"isKeyboardDown":true,"keyCode":53},{"time":17142.84000000001,"note":60,"velocity":64,"segmentId":2,"keyCode":53},{"time":17142.84000000001,"note":59,"velocity":80,"segmentId":2,"isKeyboardDown":true,"keyCode":52},{"time":18095.220000000016,"note":59,"velocity":64,"segmentId":2,"keyCode":52},{"time":18095.220000000016,"note":59,"velocity":80,"segmentId":2,"isKeyboardDown":true,"keyCode":52},{"time":19047.60000000002,"note":59,"velocity":64,"segmentId":2,"keyCode":52},{"time":19047.60000000002,"note":64,"velocity":80,"segmentId":2,"isKeyboardDown":true,"keyCode":71},{"time":19523.790000000023,"note":64,"velocity":64,"segmentId":2,"keyCode":71},{"time":19523.790000000023,"note":60,"velocity":80,"segmentId":2,"isKeyboardDown":true,"keyCode":53},{"time":19999.980000000025,"note":60,"velocity":64,"segmentId":2,"keyCode":53},{"time":19999.980000000025,"note":59,"velocity":80,"segmentId":2,"isKeyboardDown":true,"keyCode":52},{"time":20476.170000000027,"note":59,"velocity":64,"segmentId":2,"keyCode":52},{"time":20476.170000000027,"note":64,"velocity":80,"segmentId":2,"isKeyboardDown":true,"keyCode":71},{"time":20952.36000000003,"note":64,"velocity":64,"segmentId":2,"keyCode":71},{"time":20952.36000000003,"note":65,"velocity":80,"segmentId":2,"isKeyboardDown":true,"keyCode":66},{"time":21904.740000000034,"note":65,"velocity":64,"segmentId":2,"keyCode":66},{"time":21904.740000000034,"note":65,"velocity":80,"segmentId":2,"isKeyboardDown":true,"keyCode":66},{"time":22857.12000000004,"note":65,"velocity":64,"segmentId":2,"keyCode":66},{"time":22857.12000000004,"note":60,"velocity":80,"segmentId":2,"isKeyboardDown":true,"keyCode":53},{"time":23809.500000000044,"note":60,"velocity":64,"segmentId":2,"keyCode":53},{"time":23809.500000000044,"note":60,"velocity":80,"segmentId":2,"isKeyboardDown":true,"keyCode":53},{"time":24761.88000000005,"note":60,"velocity":64,"segmentId":2,"keyCode":53},{"time":24761.88000000005,"note":57,"velocity":80,"segmentId":2,"isKeyboardDown":true,"keyCode":69},{"time":25714.260000000053,"note":57,"velocity":64,"segmentId":2,"keyCode":69},{"time":25714.260000000053,"note":57,"velocity":80,"segmentId":2,"isKeyboardDown":true,"keyCode":69},{"time":26666.640000000058,"note":57,"velocity":64,"segmentId":2,"keyCode":69},{"time":26666.640000000058,"note":60,"velocity":80,"segmentId":2,"isKeyboardDown":true,"keyCode":53},{"time":27142.83000000006,"note":60,"velocity":64,"segmentId":2,"keyCode":53},{"time":27142.83000000006,"note":59,"velocity":80,"segmentId":2,"isKeyboardDown":true,"keyCode":52},{"time":27619.020000000062,"note":59,"velocity":64,"segmentId":2,"keyCode":52},{"time":27619.020000000062,"note":57,"velocity":80,"segmentId":2,"isKeyboardDown":true,"keyCode":69},{"time":28095.210000000065,"note":57,"velocity":64,"segmentId":2,"keyCode":69},{"time":28095.210000000065,"note":64,"velocity":80,"segmentId":2,"isKeyboardDown":true,"keyCode":71},{"time":28571.400000000067,"note":64,"velocity":64,"segmentId":2,"keyCode":71},{"time":28571.400000000067,"note":54,"velocity":80,"segmentId":2,"isKeyboardDown":true,"keyCode":88},{"time":29523.78000000007,"note":54,"velocity":64,"segmentId":2,"keyCode":88},{"time":29523.78000000007,"note":54,"velocity":80,"segmentId":2,"isKeyboardDown":true,"keyCode":88},{"time":30476.160000000076,"note":54,"velocity":64,"segmentId":2,"keyCode":88},{"time":30476.160000000076,"note":60,"velocity":80,"segmentId":2,"isKeyboardDown":true,"keyCode":53},{"time":31428.54000000008,"note":60,"velocity":64,"segmentId":2,"keyCode":53},{"time":31428.54000000008,"note":60,"velocity":80,"segmentId":2,"isKeyboardDown":true,"keyCode":53},{"time":32380.920000000086,"note":60,"velocity":64,"segmentId":2,"keyCode":53},{"time":32380.920000000086,"note":59,"velocity":80,"segmentId":2,"isKeyboardDown":true,"keyCode":52},{"time":33333.30000000009,"note":59,"velocity":64,"segmentId":2,"keyCode":52},{"time":33333.30000000009,"note":59,"velocity":80,"segmentId":2,"isKeyboardDown":true,"keyCode":52},{"time":34285.680000000095,"note":59,"velocity":64,"segmentId":2,"keyCode":52},{"time":34285.680000000095,"note":64,"velocity":80,"segmentId":2,"isKeyboardDown":true,"keyCode":71},{"time":34761.8700000001,"note":64,"velocity":64,"segmentId":2,"keyCode":71},{"time":34761.8700000001,"note":60,"velocity":80,"segmentId":2,"isKeyboardDown":true,"keyCode":53},{"time":35238.0600000001,"note":60,"velocity":64,"segmentId":2,"keyCode":53},{"time":35238.0600000001,"note":59,"velocity":80,"segmentId":2,"isKeyboardDown":true,"keyCode":52},{"time":35714.2500000001,"note":59,"velocity":64,"segmentId":2,"keyCode":52},{"time":35714.2500000001,"note":64,"velocity":80,"segmentId":2,"isKeyboardDown":true,"keyCode":71},{"time":36190.440000000104,"note":64,"velocity":64,"segmentId":2,"keyCode":71},{"time":36190.440000000104,"note":53,"velocity":80,"segmentId":2,"isKeyboardDown":true,"keyCode":90},{"time":37142.82000000011,"note":53,"velocity":64,"segmentId":2,"keyCode":90},{"time":37142.82000000011,"note":53,"velocity":80,"segmentId":2,"isKeyboardDown":true,"keyCode":90},{"time":38095.20000000011,"note":53,"velocity":64,"segmentId":2,"keyCode":90},{"time":45714.24000000015,"note":60,"velocity":80,"segmentId":2,"isKeyboardDown":true,"keyCode":53},{"time":46666.620000000155,"note":60,"velocity":64,"segmentId":2,"keyCode":53},{"time":46666.620000000155,"note":60,"velocity":80,"segmentId":2,"isKeyboardDown":true,"keyCode":53},{"time":47619.00000000016,"note":60,"velocity":64,"segmentId":2,"keyCode":53},{"time":47619.00000000016,"note":57,"velocity":80,"segmentId":2,"isKeyboardDown":true,"keyCode":69},{"time":48571.380000000165,"note":57,"velocity":64,"segmentId":2,"keyCode":69},{"time":48571.380000000165,"note":57,"velocity":80,"segmentId":2,"isKeyboardDown":true,"keyCode":69},{"time":49523.76000000017,"note":57,"velocity":64,"segmentId":2,"keyCode":69},{"time":49523.76000000017,"note":60,"velocity":80,"segmentId":2,"isKeyboardDown":true,"keyCode":53},{"time":49999.95000000017,"note":60,"velocity":64,"segmentId":2,"keyCode":53},{"time":49999.95000000017,"note":59,"velocity":80,"segmentId":2,"isKeyboardDown":true,"keyCode":52},{"time":50476.140000000174,"note":59,"velocity":64,"segmentId":2,"keyCode":52},{"time":50476.140000000174,"note":57,"velocity":80,"segmentId":2,"isKeyboardDown":true,"keyCode":69},{"time":50952.33000000018,"note":57,"velocity":64,"segmentId":2,"keyCode":69},{"time":50952.33000000018,"note":64,"velocity":80,"segmentId":2,"isKeyboardDown":true,"keyCode":71},{"time":51428.52000000018,"note":64,"velocity":64,"segmentId":2,"keyCode":71},{"time":51428.52000000018,"note":54,"velocity":80,"segmentId":2,"isKeyboardDown":true,"keyCode":88},{"time":52380.90000000018,"note":54,"velocity":64,"segmentId":2,"keyCode":88},{"time":52380.90000000018,"note":54,"velocity":80,"segmentId":2,"isKeyboardDown":true,"keyCode":88},{"time":53333.28000000019,"note":54,"velocity":64,"segmentId":2,"keyCode":88},{"time":53333.28000000019,"note":60,"velocity":80,"segmentId":2,"isKeyboardDown":true,"keyCode":53},{"time":54285.66000000019,"note":60,"velocity":64,"segmentId":2,"keyCode":53},{"time":54285.66000000019,"note":60,"velocity":80,"segmentId":2,"isKeyboardDown":true,"keyCode":53},{"time":55238.0400000002,"note":60,"velocity":64,"segmentId":2,"keyCode":53},{"time":55238.0400000002,"note":59,"velocity":80,"segmentId":2,"isKeyboardDown":true,"keyCode":52},{"time":56190.4200000002,"note":59,"velocity":64,"segmentId":2,"keyCode":52},{"time":56190.4200000002,"note":59,"velocity":80,"segmentId":2,"isKeyboardDown":true,"keyCode":52},{"time":57142.80000000021,"note":59,"velocity":64,"segmentId":2,"keyCode":52},{"time":57142.80000000021,"note":64,"velocity":80,"segmentId":2,"isKeyboardDown":true,"keyCode":71},{"time":57618.99000000021,"note":64,"velocity":64,"segmentId":2,"keyCode":71},{"time":57618.99000000021,"note":60,"velocity":80,"segmentId":2,"isKeyboardDown":true,"keyCode":53},{"time":58095.18000000021,"note":60,"velocity":64,"segmentId":2,"keyCode":53},{"time":58095.18000000021,"note":59,"velocity":80,"segmentId":2,"isKeyboardDown":true,"keyCode":52},{"time":58571.37000000021,"note":59,"velocity":64,"segmentId":2,"keyCode":52},{"time":58571.37000000021,"note":64,"velocity":80,"segmentId":2,"isKeyboardDown":true,"keyCode":71},{"time":59047.560000000216,"note":64,"velocity":64,"segmentId":2,"keyCode":71},{"time":59047.560000000216,"note":65,"velocity":80,"segmentId":2,"isKeyboardDown":true,"keyCode":66},{"time":59999.94000000022,"note":65,"velocity":64,"segmentId":2,"keyCode":66},{"time":59999.94000000022,"note":65,"velocity":80,"segmentId":2,"isKeyboardDown":true,"keyCode":66},{"time":60952.320000000225,"note":65,"velocity":64,"segmentId":2,"keyCode":66},{"time":60952.320000000225,"note":60,"velocity":80,"segmentId":2,"isKeyboardDown":true,"keyCode":53},{"time":61904.70000000023,"note":60,"velocity":64,"segmentId":2,"keyCode":53},{"time":61904.70000000023,"note":60,"velocity":80,"segmentId":2,"isKeyboardDown":true,"keyCode":53},{"time":62857.080000000235,"note":60,"velocity":64,"segmentId":2,"keyCode":53},{"time":62857.080000000235,"note":57,"velocity":80,"segmentId":2,"isKeyboardDown":true,"keyCode":69},{"time":63809.46000000024,"note":57,"velocity":64,"segmentId":2,"keyCode":69},{"time":63809.46000000024,"note":57,"velocity":80,"segmentId":2,"isKeyboardDown":true,"keyCode":69},{"time":64761.840000000244,"note":57,"velocity":64,"segmentId":2,"keyCode":69},{"time":64761.840000000244,"note":60,"velocity":80,"segmentId":2,"isKeyboardDown":true,"keyCode":53},{"time":65238.030000000246,"note":60,"velocity":64,"segmentId":2,"keyCode":53},{"time":65238.030000000246,"note":59,"velocity":80,"segmentId":2,"isKeyboardDown":true,"keyCode":52},{"time":65714.22000000025,"note":59,"velocity":64,"segmentId":2,"keyCode":52},{"time":65714.22000000025,"note":57,"velocity":80,"segmentId":2,"isKeyboardDown":true,"keyCode":69},{"time":66190.41000000025,"note":57,"velocity":64,"segmentId":2,"keyCode":69},{"time":66190.41000000025,"note":64,"velocity":80,"segmentId":2,"isKeyboardDown":true,"keyCode":71},{"time":66666.60000000025,"note":64,"velocity":64,"segmentId":2,"keyCode":71},{"time":66666.60000000025,"note":54,"velocity":80,"segmentId":2,"isKeyboardDown":true,"keyCode":88},{"time":67618.98000000026,"note":54,"velocity":64,"segmentId":2,"keyCode":88},{"time":67618.98000000026,"note":54,"velocity":80,"segmentId":2,"isKeyboardDown":true,"keyCode":88},{"time":68571.36000000026,"note":54,"velocity":64,"segmentId":2,"keyCode":88},{"time":68571.36000000026,"note":60,"velocity":80,"segmentId":2,"isKeyboardDown":true,"keyCode":53},{"time":69523.74000000027,"note":60,"velocity":64,"segmentId":2,"keyCode":53},{"time":69523.74000000027,"note":60,"velocity":80,"segmentId":2,"isKeyboardDown":true,"keyCode":53},{"time":70476.12000000027,"note":60,"velocity":64,"segmentId":2,"keyCode":53},{"time":70476.12000000027,"note":59,"velocity":80,"segmentId":2,"isKeyboardDown":true,"keyCode":52},{"time":71428.50000000028,"note":59,"velocity":64,"segmentId":2,"keyCode":52},{"time":71428.50000000028,"note":59,"velocity":80,"segmentId":2,"isKeyboardDown":true,"keyCode":52},{"time":72380.88000000028,"note":59,"velocity":64,"segmentId":2,"keyCode":52},{"time":72380.88000000028,"note":64,"velocity":80,"segmentId":2,"isKeyboardDown":true,"keyCode":71},{"time":72857.07000000028,"note":64,"velocity":64,"segmentId":2,"keyCode":71},{"time":72857.07000000028,"note":60,"velocity":80,"segmentId":2,"isKeyboardDown":true,"keyCode":53},{"time":73333.26000000029,"note":60,"velocity":64,"segmentId":2,"keyCode":53},{"time":73333.26000000029,"note":59,"velocity":80,"segmentId":2,"isKeyboardDown":true,"keyCode":52},{"time":73809.45000000029,"note":59,"velocity":64,"segmentId":2,"keyCode":52},{"time":73809.45000000029,"note":64,"velocity":80,"segmentId":2,"isKeyboardDown":true,"keyCode":71},{"time":74285.64000000029,"note":64,"velocity":64,"segmentId":2,"keyCode":71},{"time":74285.64000000029,"note":53,"velocity":80,"segmentId":2,"isKeyboardDown":true,"keyCode":90},{"time":75238.0200000003,"note":53,"velocity":64,"segmentId":2,"keyCode":90},{"time":75238.0200000003,"note":53,"velocity":80,"segmentId":2,"isKeyboardDown":true,"keyCode":90},{"time":76190.4000000003,"note":53,"velocity":64,"segmentId":2,"isEnd":true,"keyCode":90}],"startIndex":33,"endIndex":641},"3":{"notes":[{"time":7619.039999999998,"note":57,"velocity":80,"segmentId":3,"isKeyboardDown":true,"isStart":true,"keyCode":69},{"time":9523.8,"note":57,"velocity":64,"segmentId":3,"keyCode":69},{"time":9523.8,"note":55,"velocity":80,"segmentId":3,"isKeyboardDown":true,"keyCode":83},{"time":11428.560000000001,"note":55,"velocity":64,"segmentId":3,"keyCode":83},{"time":11428.560000000001,"note":53,"velocity":80,"segmentId":3,"isKeyboardDown":true,"keyCode":90},{"time":13333.320000000003,"note":53,"velocity":64,"segmentId":3,"keyCode":90},{"time":13333.320000000003,"note":57,"velocity":80,"segmentId":3,"isKeyboardDown":true,"keyCode":69},{"time":13809.510000000004,"note":57,"velocity":64,"segmentId":3,"keyCode":69},{"time":13809.510000000004,"note":53,"velocity":80,"segmentId":3,"isKeyboardDown":true,"keyCode":90},{"time":14285.700000000004,"note":53,"velocity":64,"segmentId":3,"keyCode":90},{"time":14285.700000000004,"note":52,"velocity":80,"segmentId":3,"isKeyboardDown":true,"keyCode":65},{"time":14761.890000000005,"note":52,"velocity":64,"segmentId":3,"keyCode":65},{"time":14761.890000000005,"note":57,"velocity":80,"segmentId":3,"isKeyboardDown":true,"keyCode":69},{"time":15238.080000000005,"note":57,"velocity":64,"segmentId":3,"keyCode":69},{"time":15238.080000000005,"note":57,"velocity":80,"segmentId":3,"isKeyboardDown":true,"keyCode":69},{"time":17142.84000000001,"note":57,"velocity":64,"segmentId":3,"keyCode":69},{"time":17142.84000000001,"note":55,"velocity":80,"segmentId":3,"isKeyboardDown":true,"keyCode":83},{"time":19047.60000000002,"note":55,"velocity":64,"segmentId":3,"keyCode":83},{"time":19047.60000000002,"note":53,"velocity":80,"segmentId":3,"isKeyboardDown":true,"keyCode":90},{"time":20952.36000000003,"note":53,"velocity":64,"segmentId":3,"keyCode":90},{"time":20952.36000000003,"note":57,"velocity":80,"segmentId":3,"isKeyboardDown":true,"keyCode":69},{"time":21428.550000000032,"note":57,"velocity":64,"segmentId":3,"keyCode":69},{"time":21428.550000000032,"note":53,"velocity":80,"segmentId":3,"isKeyboardDown":true,"keyCode":90},{"time":21904.740000000034,"note":53,"velocity":64,"segmentId":3,"keyCode":90},{"time":21904.740000000034,"note":52,"velocity":80,"segmentId":3,"isKeyboardDown":true,"keyCode":65},{"time":22380.930000000037,"note":52,"velocity":64,"segmentId":3,"keyCode":65},{"time":22380.930000000037,"note":57,"velocity":80,"segmentId":3,"isKeyboardDown":true,"keyCode":69},{"time":22857.12000000004,"note":57,"velocity":64,"segmentId":3,"keyCode":69},{"time":22857.12000000004,"note":57,"velocity":80,"segmentId":3,"isKeyboardDown":true,"keyCode":69},{"time":24761.88000000005,"note":57,"velocity":64,"segmentId":3,"keyCode":69},{"time":24761.88000000005,"note":55,"velocity":80,"segmentId":3,"isKeyboardDown":true,"keyCode":83},{"time":26666.640000000058,"note":55,"velocity":64,"segmentId":3,"keyCode":83},{"time":26666.640000000058,"note":53,"velocity":80,"segmentId":3,"isKeyboardDown":true,"keyCode":90},{"time":28571.400000000067,"note":53,"velocity":64,"segmentId":3,"keyCode":90},{"time":28571.400000000067,"note":57,"velocity":80,"segmentId":3,"isKeyboardDown":true,"keyCode":69},{"time":29047.59000000007,"note":57,"velocity":64,"segmentId":3,"keyCode":69},{"time":29047.59000000007,"note":53,"velocity":80,"segmentId":3,"isKeyboardDown":true,"keyCode":90},{"time":29523.78000000007,"note":53,"velocity":64,"segmentId":3,"keyCode":90},{"time":29523.78000000007,"note":52,"velocity":80,"segmentId":3,"isKeyboardDown":true,"keyCode":65},{"time":29999.970000000074,"note":52,"velocity":64,"segmentId":3,"keyCode":65},{"time":29999.970000000074,"note":57,"velocity":80,"segmentId":3,"isKeyboardDown":true,"keyCode":69},{"time":30476.160000000076,"note":57,"velocity":64,"segmentId":3,"keyCode":69},{"time":36190.440000000104,"note":57,"velocity":80,"segmentId":3,"isKeyboardDown":true,"keyCode":69},{"time":36666.63000000011,"note":57,"velocity":64,"segmentId":3,"keyCode":69},{"time":36666.63000000011,"note":53,"velocity":80,"segmentId":3,"isKeyboardDown":true,"keyCode":90},{"time":37142.82000000011,"note":53,"velocity":64,"segmentId":3,"keyCode":90},{"time":37142.82000000011,"note":52,"velocity":80,"segmentId":3,"isKeyboardDown":true,"keyCode":65},{"time":37619.01000000011,"note":52,"velocity":64,"segmentId":3,"keyCode":65},{"time":37619.01000000011,"note":57,"velocity":80,"segmentId":3,"isKeyboardDown":true,"keyCode":69},{"time":38095.20000000011,"note":57,"velocity":64,"segmentId":3,"keyCode":69},{"time":38095.20000000011,"note":57,"velocity":80,"segmentId":3,"isKeyboardDown":true,"keyCode":69},{"time":39999.96000000012,"note":57,"velocity":64,"segmentId":3,"keyCode":69},{"time":39999.96000000012,"note":55,"velocity":80,"segmentId":3,"isKeyboardDown":true,"keyCode":83},{"time":41904.72000000013,"note":55,"velocity":64,"segmentId":3,"keyCode":83},{"time":41904.72000000013,"note":53,"velocity":80,"segmentId":3,"isKeyboardDown":true,"keyCode":90},{"time":43809.48000000014,"note":53,"velocity":64,"segmentId":3,"keyCode":90},{"time":43809.48000000014,"note":57,"velocity":80,"segmentId":3,"isKeyboardDown":true,"keyCode":69},{"time":44285.670000000144,"note":57,"velocity":64,"segmentId":3,"keyCode":69},{"time":44285.670000000144,"note":53,"velocity":80,"segmentId":3,"isKeyboardDown":true,"keyCode":90},{"time":44761.860000000146,"note":53,"velocity":64,"segmentId":3,"keyCode":90},{"time":44761.860000000146,"note":52,"velocity":80,"segmentId":3,"isKeyboardDown":true,"keyCode":65},{"time":45238.05000000015,"note":52,"velocity":64,"segmentId":3,"keyCode":65},{"time":45238.05000000015,"note":57,"velocity":80,"segmentId":3,"isKeyboardDown":true,"keyCode":69},{"time":45714.24000000015,"note":57,"velocity":64,"segmentId":3,"keyCode":69},{"time":45714.24000000015,"note":57,"velocity":80,"segmentId":3,"isKeyboardDown":true,"keyCode":69},{"time":47619.00000000016,"note":57,"velocity":64,"segmentId":3,"keyCode":69},{"time":47619.00000000016,"note":55,"velocity":80,"segmentId":3,"isKeyboardDown":true,"keyCode":83},{"time":49523.76000000017,"note":55,"velocity":64,"segmentId":3,"keyCode":83},{"time":49523.76000000017,"note":53,"velocity":80,"segmentId":3,"isKeyboardDown":true,"keyCode":90},{"time":51428.52000000018,"note":53,"velocity":64,"segmentId":3,"keyCode":90},{"time":51428.52000000018,"note":57,"velocity":80,"segmentId":3,"isKeyboardDown":true,"keyCode":69},{"time":51904.71000000018,"note":57,"velocity":64,"segmentId":3,"keyCode":69},{"time":51904.71000000018,"note":53,"velocity":80,"segmentId":3,"isKeyboardDown":true,"keyCode":90},{"time":52380.90000000018,"note":53,"velocity":64,"segmentId":3,"keyCode":90},{"time":52380.90000000018,"note":52,"velocity":80,"segmentId":3,"isKeyboardDown":true,"keyCode":65},{"time":52857.090000000186,"note":52,"velocity":64,"segmentId":3,"keyCode":65},{"time":52857.090000000186,"note":57,"velocity":80,"segmentId":3,"isKeyboardDown":true,"keyCode":69},{"time":53333.28000000019,"note":57,"velocity":64,"segmentId":3,"keyCode":69},{"time":53333.28000000019,"note":57,"velocity":80,"segmentId":3,"isKeyboardDown":true,"keyCode":69},{"time":55238.0400000002,"note":57,"velocity":64,"segmentId":3,"keyCode":69},{"time":55238.0400000002,"note":55,"velocity":80,"segmentId":3,"isKeyboardDown":true,"keyCode":83},{"time":57142.80000000021,"note":55,"velocity":64,"segmentId":3,"keyCode":83},{"time":57142.80000000021,"note":53,"velocity":80,"segmentId":3,"isKeyboardDown":true,"keyCode":90},{"time":59047.560000000216,"note":53,"velocity":64,"segmentId":3,"keyCode":90},{"time":59047.560000000216,"note":57,"velocity":80,"segmentId":3,"isKeyboardDown":true,"keyCode":69},{"time":59523.75000000022,"note":57,"velocity":64,"segmentId":3,"keyCode":69},{"time":59523.75000000022,"note":53,"velocity":80,"segmentId":3,"isKeyboardDown":true,"keyCode":90},{"time":59999.94000000022,"note":53,"velocity":64,"segmentId":3,"keyCode":90},{"time":59999.94000000022,"note":52,"velocity":80,"segmentId":3,"isKeyboardDown":true,"keyCode":65},{"time":60476.13000000022,"note":52,"velocity":64,"segmentId":3,"keyCode":65},{"time":60476.13000000022,"note":57,"velocity":80,"segmentId":3,"isKeyboardDown":true,"keyCode":69},{"time":60952.320000000225,"note":57,"velocity":64,"segmentId":3,"keyCode":69},{"time":60952.320000000225,"note":57,"velocity":80,"segmentId":3,"isKeyboardDown":true,"keyCode":69},{"time":62857.080000000235,"note":57,"velocity":64,"segmentId":3,"keyCode":69},{"time":62857.080000000235,"note":55,"velocity":80,"segmentId":3,"isKeyboardDown":true,"keyCode":83},{"time":64761.840000000244,"note":55,"velocity":64,"segmentId":3,"keyCode":83},{"time":64761.840000000244,"note":53,"velocity":80,"segmentId":3,"isKeyboardDown":true,"keyCode":90},{"time":66666.60000000025,"note":53,"velocity":64,"segmentId":3,"keyCode":90},{"time":66666.60000000025,"note":57,"velocity":80,"segmentId":3,"isKeyboardDown":true,"keyCode":69},{"time":67142.79000000026,"note":57,"velocity":64,"segmentId":3,"keyCode":69},{"time":67142.79000000026,"note":53,"velocity":80,"segmentId":3,"isKeyboardDown":true,"keyCode":90},{"time":67618.98000000026,"note":53,"velocity":64,"segmentId":3,"keyCode":90},{"time":67618.98000000026,"note":52,"velocity":80,"segmentId":3,"isKeyboardDown":true,"keyCode":65},{"time":68095.17000000026,"note":52,"velocity":64,"segmentId":3,"keyCode":65},{"time":68095.17000000026,"note":57,"velocity":80,"segmentId":3,"isKeyboardDown":true,"keyCode":69},{"time":68571.36000000026,"note":57,"velocity":64,"segmentId":3,"keyCode":69},{"time":74285.64000000029,"note":57,"velocity":80,"segmentId":3,"isKeyboardDown":true,"keyCode":69},{"time":74761.8300000003,"note":57,"velocity":64,"segmentId":3,"keyCode":69},{"time":74761.8300000003,"note":53,"velocity":80,"segmentId":3,"isKeyboardDown":true,"keyCode":90},{"time":75238.0200000003,"note":53,"velocity":64,"segmentId":3,"keyCode":90},{"time":75238.0200000003,"note":52,"velocity":80,"segmentId":3,"isKeyboardDown":true,"keyCode":65},{"time":75714.2100000003,"note":52,"velocity":64,"segmentId":3,"keyCode":65},{"time":75714.2100000003,"note":57,"velocity":80,"segmentId":3,"isKeyboardDown":true,"keyCode":69},{"time":76190.4000000003,"note":57,"velocity":64,"segmentId":3,"keyCode":69},{"time":76190.4000000003,"note":57,"velocity":80,"segmentId":3,"isKeyboardDown":true,"keyCode":69},{"time":78095.16000000031,"note":57,"velocity":64,"segmentId":3,"keyCode":69},{"time":78095.16000000031,"note":55,"velocity":80,"segmentId":3,"isKeyboardDown":true,"keyCode":83},{"time":79999.92000000032,"note":55,"velocity":64,"segmentId":3,"keyCode":83},{"time":79999.92000000032,"note":53,"velocity":80,"segmentId":3,"isKeyboardDown":true,"keyCode":90},{"time":81904.68000000033,"note":53,"velocity":64,"segmentId":3,"keyCode":90},{"time":81904.68000000033,"note":57,"velocity":80,"segmentId":3,"isKeyboardDown":true,"keyCode":69},{"time":82380.87000000033,"note":57,"velocity":64,"segmentId":3,"keyCode":69},{"time":82380.87000000033,"note":53,"velocity":80,"segmentId":3,"isKeyboardDown":true,"keyCode":90},{"time":82857.06000000033,"note":53,"velocity":64,"segmentId":3,"keyCode":90},{"time":82857.06000000033,"note":52,"velocity":80,"segmentId":3,"isKeyboardDown":true,"keyCode":65},{"time":83333.25000000033,"note":52,"velocity":64,"segmentId":3,"keyCode":65},{"time":83333.25000000033,"note":57,"velocity":80,"segmentId":3,"isKeyboardDown":true,"keyCode":69},{"time":83809.44000000034,"note":57,"velocity":64,"segmentId":3,"isEnd":true,"keyCode":69}],"startIndex":34,"endIndex":687},"4":{"notes":[{"time":30476.160000000076,"note":88,"velocity":60,"segmentId":4,"isKeyboardDown":true,"isStart":true,"keyCode":189},{"time":30952.35000000008,"note":88,"velocity":64,"segmentId":4,"keyCode":189},{"time":30952.35000000008,"note":84,"velocity":60,"segmentId":4,"isKeyboardDown":true,"keyCode":8},{"time":31428.54000000008,"note":84,"velocity":64,"segmentId":4,"keyCode":8},{"time":31428.54000000008,"note":83,"velocity":60,"segmentId":4,"isKeyboardDown":true,"keyCode":187},{"time":31904.730000000083,"note":83,"velocity":64,"segmentId":4,"keyCode":187},{"time":31904.730000000083,"note":88,"velocity":60,"segmentId":4,"isKeyboardDown":true,"keyCode":189},{"time":32380.920000000086,"note":88,"velocity":64,"segmentId":4,"keyCode":189},{"time":32380.920000000086,"note":88,"velocity":80,"segmentId":4,"isKeyboardDown":true,"keyCode":189},{"time":32857.11000000009,"note":88,"velocity":64,"segmentId":4,"keyCode":189},{"time":32857.11000000009,"note":84,"velocity":80,"segmentId":4,"isKeyboardDown":true,"keyCode":8},{"time":33333.30000000009,"note":84,"velocity":64,"segmentId":4,"keyCode":8},{"time":33333.30000000009,"note":83,"velocity":80,"segmentId":4,"isKeyboardDown":true,"keyCode":187},{"time":33809.49000000009,"note":83,"velocity":64,"segmentId":4,"keyCode":187},{"time":33809.49000000009,"note":88,"velocity":80,"segmentId":4,"isKeyboardDown":true,"keyCode":189},{"time":34285.680000000095,"note":88,"velocity":64,"segmentId":4,"keyCode":189},{"time":34285.680000000095,"note":91,"velocity":80,"segmentId":4,"isKeyboardDown":true,"keyCode":75},{"time":34761.8700000001,"note":91,"velocity":64,"segmentId":4,"keyCode":75},{"time":34761.8700000001,"note":84,"velocity":80,"segmentId":4,"isKeyboardDown":true,"keyCode":8},{"time":35238.0600000001,"note":84,"velocity":64,"segmentId":4,"keyCode":8},{"time":35238.0600000001,"note":83,"velocity":80,"segmentId":4,"isKeyboardDown":true,"keyCode":187},{"time":35714.2500000001,"note":83,"velocity":64,"segmentId":4,"keyCode":187},{"time":35714.2500000001,"note":93,"velocity":80,"segmentId":4,"isKeyboardDown":true,"keyCode":55},{"time":36190.440000000104,"note":93,"velocity":64,"segmentId":4,"keyCode":55},{"time":68571.36000000026,"note":88,"velocity":60,"segmentId":4,"isKeyboardDown":true,"keyCode":189},{"time":69047.55000000026,"note":88,"velocity":64,"segmentId":4,"keyCode":189},{"time":69047.55000000026,"note":84,"velocity":60,"segmentId":4,"isKeyboardDown":true,"keyCode":8},{"time":69523.74000000027,"note":84,"velocity":64,"segmentId":4,"keyCode":8},{"time":69523.74000000027,"note":83,"velocity":60,"segmentId":4,"isKeyboardDown":true,"keyCode":187},{"time":69999.93000000027,"note":83,"velocity":64,"segmentId":4,"keyCode":187},{"time":69999.93000000027,"note":88,"velocity":60,"segmentId":4,"isKeyboardDown":true,"keyCode":189},{"time":70476.12000000027,"note":88,"velocity":64,"segmentId":4,"keyCode":189},{"time":70476.12000000027,"note":88,"velocity":80,"segmentId":4,"isKeyboardDown":true,"keyCode":189},{"time":70952.31000000027,"note":88,"velocity":64,"segmentId":4,"keyCode":189},{"time":70952.31000000027,"note":84,"velocity":80,"segmentId":4,"isKeyboardDown":true,"keyCode":8},{"time":71428.50000000028,"note":84,"velocity":64,"segmentId":4,"keyCode":8},{"time":71428.50000000028,"note":83,"velocity":80,"segmentId":4,"isKeyboardDown":true,"keyCode":187},{"time":71904.69000000028,"note":83,"velocity":64,"segmentId":4,"keyCode":187},{"time":71904.69000000028,"note":88,"velocity":80,"segmentId":4,"isKeyboardDown":true,"keyCode":189},{"time":72380.88000000028,"note":88,"velocity":64,"segmentId":4,"keyCode":189},{"time":72380.88000000028,"note":91,"velocity":80,"segmentId":4,"isKeyboardDown":true,"keyCode":75},{"time":72857.07000000028,"note":91,"velocity":64,"segmentId":4,"keyCode":75},{"time":72857.07000000028,"note":84,"velocity":80,"segmentId":4,"isKeyboardDown":true,"keyCode":8},{"time":73333.26000000029,"note":84,"velocity":64,"segmentId":4,"keyCode":8},{"time":73333.26000000029,"note":83,"velocity":80,"segmentId":4,"isKeyboardDown":true,"keyCode":187},{"time":73809.45000000029,"note":83,"velocity":64,"segmentId":4,"keyCode":187},{"time":73809.45000000029,"note":93,"velocity":80,"segmentId":4,"isKeyboardDown":true,"keyCode":55},{"time":74285.64000000029,"note":93,"velocity":64,"segmentId":4,"isEnd":true,"keyCode":55}],"startIndex":232,"endIndex":624}},"title":"Pokemon - Lavender Town"}